<svg width="16" height="18" viewBox="0 0 16 18" fill="none" xmlns="http://www.w3.org/2000/svg">
<path d="M13.0166 2.15655H10.0988C9.95329 0.94457 8.87947 0 7.57893 0C6.27843 0 5.20476 0.944533 5.05921 2.15655H2.14131C0.960523 2.15655 0 3.07918 0 4.21303V4.31855C0 5.18502 0.561837 5.92666 1.3533 6.22884V15.9435C1.3533 17.0774 2.31394 18 3.49466 18H11.6633C12.844 18 13.8046 17.0773 13.8046 15.9435V6.22888C14.596 5.92666 15.1579 5.18502 15.1579 4.31858V4.21307C15.1579 3.07918 14.1973 2.15655 13.0166 2.15655ZM7.57893 0.975277C8.3186 0.975277 8.936 1.48439 9.07261 2.15655H6.08552C6.22209 1.48435 6.83953 0.975277 7.57893 0.975277ZM12.789 15.9435C12.789 16.5397 12.2839 17.0248 11.6632 17.0248H3.49462C2.87399 17.0248 2.36888 16.5396 2.36888 15.9435V6.37503H12.789V15.9435ZM14.1423 4.31855C14.1423 4.9147 13.6372 5.39979 13.0165 5.39979H2.14131C1.52069 5.39979 1.01558 4.9147 1.01558 4.31855V4.21303C1.01558 3.61687 1.52069 3.13179 2.14131 3.13179H13.0166C13.6372 3.13179 14.1423 3.61687 14.1423 4.21303V4.31855H14.1423Z" fill="black"/>
<path d="M4.85642 15.7773C5.13687 15.7773 5.36421 15.5589 5.36421 15.2897V9.79918C5.36421 9.52994 5.13684 9.31152 4.85642 9.31152C4.57601 9.31152 4.34863 9.52994 4.34863 9.79918V15.2897C4.34859 15.5589 4.57597 15.7773 4.85642 15.7773Z" fill="black"/>
<path d="M7.57883 15.7773C7.85929 15.7773 8.08666 15.5589 8.08666 15.2897V9.79918C8.08666 9.52994 7.85921 9.31152 7.57883 9.31152C7.29842 9.31152 7.07104 9.52994 7.07104 9.79918V15.2897C7.07104 15.5589 7.29838 15.7773 7.57883 15.7773Z" fill="black"/>
<path d="M10.3015 15.7773C10.5819 15.7773 10.8093 15.5589 10.8093 15.2897V9.79918C10.8093 9.52994 10.5819 9.31152 10.3015 9.31152C10.021 9.31152 9.7937 9.52994 9.7937 9.79918V15.2897C9.79366 15.5589 10.0211 15.7773 10.3015 15.7773Z" fill="black"/>
</svg>
