<svg width="25" height="25" viewBox="0 0 25 25" fill="none" xmlns="http://www.w3.org/2000/svg">
<path d="M24.1089 23.2266H0.891603C0.403488 23.2266 0.0214844 23.6375 0.0214844 24.1132C0.0214844 24.589 0.42471 24.9999 0.891603 24.9999H24.1301C24.6183 24.9999 25.0003 24.589 25.0003 24.1132C25.0003 23.6375 24.597 23.2266 24.1089 23.2266Z" fill="#A2A2A2"/>
<path d="M0.0212224 15.3763L0 19.5934C0 19.8313 0.0848897 20.0692 0.254669 20.2422C0.424448 20.4152 0.636672 20.5017 0.870119 20.5017L4.98727 20.4801C5.22071 20.4801 5.43294 20.3936 5.60272 20.2206L19.8217 5.73097C20.1613 5.38495 20.1613 4.82266 19.8217 4.45502L15.747 0.259516C15.4075 -0.0865052 14.8557 -0.0865052 14.4949 0.259516L11.6511 3.17907L0.275891 14.7491C0.127335 14.9221 0.0212224 15.1384 0.0212224 15.3763ZM15.1316 2.16263L17.9966 5.08218L16.3837 6.72578L13.5187 3.80623L15.1316 2.16263ZM1.78268 15.7656L12.2666 5.08218L15.1316 8.00173L4.64771 18.6635L1.76146 18.6851L1.78268 15.7656Z" fill="#A2A2A2"/>
</svg>
