<svg width="30" height="25" viewBox="0 0 30 25" fill="none" xmlns="http://www.w3.org/2000/svg">
<path d="M17.9271 4.29093C19.3006 5.15215 20.2638 6.60952 20.4392 8.3012C20.9994 8.56294 21.6211 8.71346 22.2803 8.71346C24.6867 8.71346 26.6372 6.76301 26.6372 4.35692C26.6372 1.95045 24.6867 0 22.2803 0C19.8968 0.000741477 17.9634 1.91635 17.9271 4.29093ZM15.0727 13.2116C17.4792 13.2116 19.4297 11.2608 19.4297 8.85472C19.4297 6.44862 17.4788 4.49817 15.0727 4.49817C12.6666 4.49817 10.7151 6.44899 10.7151 8.85509C10.7151 11.2612 12.6666 13.2116 15.0727 13.2116ZM16.9209 13.5086H13.2239C10.1479 13.5086 7.64537 16.0114 7.64537 19.0875V23.6086L7.65686 23.6794L7.96828 23.7769C10.9038 24.6941 13.4541 25 15.5532 25C19.6532 25 22.0296 23.8311 22.1761 23.7565L22.4671 23.6094H22.4983V19.0875C22.4994 16.0114 19.9969 13.5086 16.9209 13.5086ZM24.1291 9.0108H20.4607C20.421 10.4785 19.7945 11.8002 18.8035 12.7508C21.5377 13.5638 23.5382 16.0993 23.5382 19.0941V20.4874C27.1603 20.3546 29.2475 19.3281 29.3851 19.2591L29.6761 19.1116H29.7073V14.5889C29.7073 11.5133 27.2048 9.0108 24.1291 9.0108ZM7.42774 8.71421C8.28007 8.71421 9.07308 8.46544 9.74486 8.04169C9.9584 6.64882 10.7051 5.43169 11.7717 4.60272C11.7761 4.52115 11.7839 4.44033 11.7839 4.35803C11.7839 1.95157 9.83309 0.00111213 7.42774 0.00111213C5.02091 0.00111213 3.07083 1.95157 3.07083 4.35803C3.07083 6.76338 5.02091 8.71421 7.42774 8.71421ZM11.3405 12.7508C10.3544 11.8051 9.73003 10.4904 9.68443 9.03156C9.54837 9.02155 9.41379 9.0108 9.27513 9.0108H5.5785C2.50248 9.0108 0 11.5133 0 14.5889V19.1108L0.0114929 19.1805L0.322913 19.2788C2.67784 20.0139 4.77956 20.3528 6.60507 20.4596V19.0941C6.60582 16.0993 8.60558 13.5646 11.3405 12.7508Z" fill="#A2A2A2"/>
</svg>
