<svg width="25" height="25" viewBox="0 0 25 25" fill="none" xmlns="http://www.w3.org/2000/svg">
<path d="M6.25006 1.56256H18.75V4.68754H20.3125V1.56256C20.3125 0.700467 19.6138 0 18.75 0H6.25006C5.38802 0 4.6875 0.700467 4.6875 1.56256V4.68754H6.25006V1.56256Z" fill="#A2A2A2"/>
<path d="M23.4376 6.25H1.56256C0.700518 6.25 0 6.95026 0 7.81241V15.6249C0 16.4887 0.700467 17.1875 1.56256 17.1875H4.68754V23.4374C4.68754 24.3012 5.38801 24.9999 6.2501 24.9999H18.75C19.6138 24.9999 20.3126 24.3012 20.3126 23.4374V17.1875H23.4376C24.3011 17.1875 24.9999 16.4887 24.9999 15.6249V7.81241C24.9999 6.95026 24.3011 6.25 23.4376 6.25ZM18.7499 23.4374H6.25005V12.4999H18.7499V23.4374ZM21.875 10.9375C21.0113 10.9375 20.3125 10.2387 20.3125 9.37497C20.3125 8.51293 21.0113 7.81241 21.875 7.81241C22.7388 7.81241 23.4376 8.51288 23.4376 9.37497C23.4376 10.2386 22.7388 10.9375 21.875 10.9375Z" fill="#A2A2A2"/>
<path d="M14.0626 14.0625H7.8125V15.6251H14.0626V14.0625Z" fill="#A2A2A2"/>
<path d="M17.1877 17.1875H7.8125V18.7498H17.1877V17.1875Z" fill="#A2A2A2"/>
<path d="M17.1877 20.3125H7.8125V21.8748H17.1877V20.3125Z" fill="#A2A2A2"/>
</svg>
