<svg width="20" height="25" viewBox="0 0 20 25" fill="none" xmlns="http://www.w3.org/2000/svg">
<path d="M14.2543 10.8878C14.3186 10.7977 14.3436 10.74 14.3535 10.7089C14.3005 10.6809 14.2302 10.624 13.847 10.624C13.6293 10.624 13.3561 10.6335 13.0664 10.6706C13.4177 10.9408 13.5035 11.0775 13.7332 11.0775C13.8336 11.0779 14.1216 11.0736 14.2543 10.8878Z" fill="#A2A2A2"/>
<path d="M6.05008 14.0665C6.11431 14.0462 6.48931 13.8751 7.18802 12.5854C6.26646 13.1031 5.89146 13.5286 5.86474 13.7682C5.86 13.8079 5.84836 13.9122 6.05008 14.0665Z" fill="#A2A2A2"/>
<path d="M19.3966 16.8103V6.025C19.3966 5.69483 19.3569 5.45043 19.1595 5.25259L14.1435 0.237069C13.9931 0.0866379 13.7845 0 13.5711 0H1.06164C0.550431 0 0 0.394828 0 1.26121V16.8103H19.3966ZM13.3621 1.46164C13.3621 1.26422 13.6004 1.16552 13.7401 1.30517L18.0914 5.65647C18.231 5.79612 18.1323 6.03448 17.9349 6.03448H13.3621V1.46164ZM5.1431 13.6875C5.22155 12.9858 6.08922 12.2513 7.72284 11.503C8.37112 10.0823 8.98793 8.3319 9.3556 6.8694C8.92543 5.93319 8.50733 4.71853 8.81207 4.00603C8.91897 3.75647 9.05215 3.56509 9.30086 3.48233C9.39914 3.44957 9.64741 3.40819 9.73879 3.40819C9.95603 3.40819 10.147 3.68793 10.2823 3.86034C10.4095 4.02241 10.6978 4.36595 10.1216 6.79224C10.7026 7.99224 11.5259 9.21465 12.3147 10.0517C12.8797 9.94957 13.3659 9.89741 13.7621 9.89741C14.4371 9.89741 14.8461 10.0547 15.0129 10.3789C15.1509 10.647 15.0944 10.9603 14.8448 11.3099C14.6047 11.6457 14.2737 11.8233 13.8879 11.8233C13.3638 11.8233 12.7534 11.4922 12.0728 10.8384C10.85 11.094 9.42155 11.55 8.26767 12.0547C7.90733 12.8194 7.56207 13.4353 7.24052 13.8871C6.79957 14.5069 6.41853 14.7953 6.04138 14.7953C5.89138 14.7953 5.74741 14.7466 5.62457 14.6547C5.175 14.3172 5.11465 13.9427 5.1431 13.6875Z" fill="#A2A2A2"/>
<path d="M6.34565 19.7662C6.28444 19.6817 6.1991 19.611 6.08918 19.5541C5.97927 19.4972 5.83358 19.4688 5.65297 19.4688H5.1228V21.1894H5.77108C5.85729 21.1894 5.94263 21.1748 6.02754 21.145C6.11203 21.1157 6.18961 21.0675 6.2603 21.0006C6.33099 20.9338 6.38789 20.8407 6.43099 20.7209C6.4741 20.6011 6.49565 20.4528 6.49565 20.2761C6.49565 20.2054 6.48573 20.1235 6.46634 20.0317C6.44651 19.9394 6.40642 19.8511 6.34565 19.7662Z" fill="#A2A2A2"/>
<path d="M9.84619 7.8335C9.53757 8.89988 9.1311 10.0512 8.6936 11.0938C9.59447 10.7443 10.5738 10.4391 11.4936 10.2232C10.9117 9.54729 10.3302 8.70332 9.84619 7.8335Z" fill="#A2A2A2"/>
<path d="M0 17.6724V24.1379C0 24.5728 0.525862 24.9999 1.06164 24.9999H18.3349C18.8707 24.9999 19.3966 24.5728 19.3966 24.1379V17.6724H0ZM7.06724 20.8745C6.99267 21.0534 6.88836 21.2038 6.75474 21.3254C6.62112 21.4469 6.45991 21.5413 6.27155 21.6081C6.08319 21.6749 5.87457 21.7081 5.64698 21.7081H5.12241V23.2758H4.41509V18.9327H5.66422C5.84871 18.9327 6.03147 18.962 6.21207 19.0211C6.39267 19.0801 6.55474 19.1685 6.69828 19.2862C6.84181 19.4038 6.95776 19.5465 7.04612 19.7133C7.13448 19.8801 7.17888 20.0676 7.17888 20.2762C7.17931 20.4965 7.14181 20.6956 7.06724 20.8745ZM11.4017 21.8999C11.325 22.1534 11.228 22.3655 11.1099 22.5366C10.9918 22.7077 10.8595 22.8422 10.7121 22.9405C10.5647 23.0387 10.4224 23.112 10.2849 23.1616C10.1474 23.2107 10.0216 23.2422 9.90776 23.256C9.79397 23.2689 9.70948 23.2758 9.65431 23.2758H8.01034V18.9327H9.31853C9.68405 18.9327 10.0052 18.9909 10.2819 19.1064C10.5586 19.2219 10.7888 19.3767 10.9716 19.5689C11.1543 19.7612 11.2905 19.9806 11.381 20.2258C11.4711 20.4711 11.5164 20.7237 11.5164 20.9831C11.5168 21.3409 11.4784 21.6465 11.4017 21.8999ZM15.2586 19.4689H13.2608V20.8362H15.0759V21.3193H13.2608V23.2758H12.5418V18.9327H15.2586V19.4689Z" fill="#A2A2A2"/>
<path d="M10.459 19.9489C10.3353 19.8053 10.1672 19.6894 9.95515 19.601C9.74308 19.5127 9.46808 19.4683 9.13015 19.4683H8.71765V22.7566H9.41894C9.89825 22.7566 10.2439 22.6036 10.456 22.2971C10.6681 21.9907 10.7741 21.5467 10.7741 20.9652C10.7741 20.7846 10.7526 20.6058 10.7095 20.429C10.6659 20.2523 10.5827 20.0924 10.459 19.9489Z" fill="#A2A2A2"/>
<path d="M9.58444 4.18609C9.5422 4.20032 9.01117 4.94342 9.62582 5.5723C10.0349 4.66066 9.60298 4.18006 9.58444 4.18609Z" fill="#A2A2A2"/>
</svg>
