<svg width="25" height="25" viewBox="0 0 25 25" fill="none" xmlns="http://www.w3.org/2000/svg">
<path fill-rule="evenodd" clip-rule="evenodd" d="M24.9212 11.112C24.8816 10.7606 24.4719 10.4965 24.1176 10.4965C22.9721 10.4965 21.9556 9.8239 21.5292 8.78368C21.0937 7.71825 21.3746 6.47572 22.2283 5.6926C22.497 5.44694 22.5297 5.0357 22.3043 4.75005C21.718 4.00553 21.0516 3.33301 20.324 2.75016C20.0391 2.52152 19.6211 2.55333 19.374 2.8269C18.6289 3.65206 17.2906 3.95874 16.2564 3.52723C15.1802 3.07451 14.5015 1.98397 14.568 0.813332C14.5898 0.445632 14.3211 0.125928 13.9545 0.083233C13.0208 -0.0247611 12.0789 -0.0281097 11.1424 0.0757915C10.78 0.115789 10.5113 0.427958 10.5234 0.791008C10.5642 1.95011 9.87733 3.02158 8.81181 3.45802C7.79001 3.8754 6.46106 3.57132 5.71747 2.7535C5.47172 2.48412 5.06048 2.45101 4.77417 2.67416C4.02501 3.26194 3.34365 3.93502 2.75196 4.6734C2.52118 4.96045 2.55513 5.37652 2.82656 5.62349C3.69656 6.41135 3.97747 7.66467 3.5255 8.74238C3.09399 9.76986 2.02707 10.4321 0.805649 10.4321C0.409299 10.4193 0.126989 10.6853 0.0836428 11.0457C-0.0263046 11.9848 -0.0276069 12.9417 0.0782477 13.8884C0.117501 14.2413 0.539711 14.5031 0.897923 14.5031C1.98642 14.4753 3.03148 15.1492 3.46987 16.216C3.90687 17.2814 3.62596 18.5232 2.77094 19.307C2.50351 19.5527 2.46956 19.9633 2.69494 20.2489C3.27575 20.9887 3.94222 21.6619 4.67241 22.2495C4.95882 22.4803 5.37554 22.4478 5.6238 22.1742C6.37167 21.347 7.70992 21.0409 8.74 21.4732C9.81892 21.9245 10.4976 23.015 10.4312 24.1863C10.4095 24.5542 10.6795 24.8744 11.0446 24.9165C11.5223 24.9722 12.0028 25 12.4846 25C12.942 25 13.3995 24.9749 13.8568 24.924C14.2193 24.884 14.4879 24.5718 14.4757 24.2081C14.4337 23.0497 15.1218 21.9782 16.1859 21.5425C17.2146 21.1224 18.538 21.4299 19.2817 22.2468C19.5288 22.5157 19.9372 22.5481 20.225 22.3257C20.9728 21.7393 21.6528 21.0668 22.2473 20.3264C22.4779 20.04 22.4454 19.6233 22.1726 19.3764C21.3026 18.5885 21.0203 17.335 21.4722 16.2581C21.8971 15.2443 22.9244 14.5635 24.0294 14.5635L24.184 14.5675C24.5424 14.5967 24.8721 14.3206 24.9156 13.9547C25.0257 13.0148 25.027 12.0588 24.9212 11.112ZM12.5195 16.6959C10.2203 16.6959 8.35007 14.8257 8.35007 12.5265C8.35007 10.2273 10.2203 8.35701 12.5195 8.35701C14.8186 8.35701 16.6889 10.2273 16.6889 12.5265C16.6889 14.8257 14.8186 16.6959 12.5195 16.6959Z" fill="#A2A2A2"/>
</svg>
