<svg width="49" height="49" viewBox="0 0 49 49" fill="none" xmlns="http://www.w3.org/2000/svg">
<path d="M25.8159 28.6588C25.4079 28.2858 24.7444 28.342 24.3857 28.766L20.6013 33.2001V15.4791C20.6013 14.8967 20.1393 14.4165 19.579 14.4165C19.0187 14.4165 18.5567 14.8967 18.5567 15.4791V33.2001L14.7723 28.766C14.3644 28.342 13.7501 28.2858 13.3421 28.6588C12.9342 29.0828 12.8801 29.7213 13.2389 30.1453L18.8123 36.6279C19.23 37.1643 19.9673 37.0825 20.2966 36.6279L25.9191 30.1453C26.2778 29.7264 26.2287 29.0317 25.8159 28.6588Z" fill="#A2A2A2"/>
<path d="M36.7611 18.8811L31.2369 12.3985C30.7454 11.8826 30.1311 11.8519 29.7035 12.3985L24.081 18.8811C23.7222 19.3051 23.7763 19.9947 24.1842 20.3677C24.8133 20.8887 25.4473 20.5311 25.6144 20.2604L29.3988 15.8263V33.4963C29.3988 34.0786 29.8608 34.5588 30.421 34.5588C30.9813 34.5588 31.4433 34.1348 31.4433 33.5474V15.8314L35.2277 20.2655C35.6356 20.6895 36.25 20.7457 36.6579 20.3728C37.0658 19.9437 37.1199 19.3051 36.7611 18.8811Z" fill="#A2A2A2"/>
<rect x="0.5" y="0.5" width="48" height="48" rx="4.5" stroke="#A2A2A2"/>
</svg>
