<svg width="20" height="25" viewBox="0 0 20 25" fill="none" xmlns="http://www.w3.org/2000/svg">
<path d="M12.5406 10.2897C14.0875 9.2954 15.1146 7.5636 15.1146 5.58869C15.1146 2.50238 12.6122 0 9.52666 0C6.43971 0 3.93792 2.50238 3.93792 5.58874C3.93792 7.56365 4.96501 9.29578 6.512 10.2897C2.86728 10.6159 0 13.6862 0 17.4148V23.2153L0.0146948 23.306L0.414622 23.4308C4.17931 24.6069 7.45076 25 10.1434 25C15.4018 25 18.4501 23.4999 18.639 23.4048L19.0124 23.2153H19.0517V17.4148C19.0521 13.6865 16.1858 10.6167 12.5406 10.2897Z" fill="#A3A3A3"/>
</svg>
