<svg width="14" height="30" viewBox="0 0 14 30" fill="none" xmlns="http://www.w3.org/2000/svg">
<path d="M3.02605 5.81002C3.02605 6.56603 3.02605 9.94041 3.02605 9.94041H0V14.9911H3.02605V29.9999H9.24221V14.9915H13.4135C13.4135 14.9915 13.8042 12.5697 13.9936 9.92179C13.4506 9.92179 9.26571 9.92179 9.26571 9.92179C9.26571 9.92179 9.26571 6.98347 9.26571 6.46845C9.26571 5.95231 9.94346 5.25802 10.6133 5.25802C11.2819 5.25802 12.6931 5.25802 14.0001 5.25802C14.0001 4.57037 14.0001 2.19437 14.0001 1.80416e-08C12.2553 1.80416e-08 10.2702 1.80416e-08 9.39524 1.80416e-08C2.8724 -0.000348727 3.02605 5.05533 3.02605 5.81002Z" fill="black"/>
</svg>
