<svg width="37" height="36" viewBox="0 0 37 36" fill="none" xmlns="http://www.w3.org/2000/svg">
<g clip-path="url(#clip0)">
<path d="M8.4511 25.4596C5.51942 21.3522 5.81832 15.6834 9.16846 11.908C13.547 6.96936 21.1054 7.03398 25.4259 11.7408L27.6151 9.77596C27.7367 9.6668 27.9377 9.76084 27.9538 9.93168L28.6891 17.4103C28.7004 17.5375 28.5901 17.6364 28.4649 17.6116L21.109 16.0752C20.9408 16.0408 20.8728 15.8273 20.9906 15.7216L23.176 13.7602C20.1244 10.4672 14.8801 10.3431 11.687 13.6207C8.9383 16.4377 8.70552 20.9493 11.1425 24.0391C13.7249 27.3139 18.3008 27.9625 21.6502 25.8072C22.2722 25.4068 23.0938 25.5271 23.585 26.0744C24.1956 26.7547 24.0689 27.8291 23.3007 28.3265C18.5379 31.4072 11.9545 30.3646 8.4511 25.4596Z" fill="white"/>
</g>
<defs>
<clipPath id="clip0">
<rect width="25" height="25" fill="white" transform="matrix(-0.667948 -0.744208 -0.744208 0.667948 36.152 19)"/>
</clipPath>
</defs>
</svg>
