<svg width="18" height="14" viewBox="0 0 18 14" fill="none" xmlns="http://www.w3.org/2000/svg">
<path d="M17.7549 6.40826L12.3984 1.05175C12.0716 0.724937 11.5415 0.724937 11.2147 1.05175C10.8878 1.37863 10.8878 1.90852 11.2147 2.2354L15.1424 6.16313H0.836954C0.374754 6.16313 0 6.53788 0 7.00008C0 7.46221 0.374754 7.83704 0.836954 7.83704H15.1424L11.2148 11.7648C10.888 12.0916 10.888 12.6215 11.2148 12.9484C11.3782 13.1117 11.5925 13.1935 11.8067 13.1935C12.0209 13.1935 12.2351 13.1117 12.3985 12.9484L17.7549 7.59191C18.0818 7.26503 18.0818 6.73514 17.7549 6.40826Z" fill="#DEC600"/>
</svg>
