<svg width="1920" height="859" viewBox="0 0 1920 859" fill="none" xmlns="http://www.w3.org/2000/svg">
<path d="M1761.31 772.711V384.026H1743.03V258.046H1774.08V243.721H1750.34V175.039H1763.9L1735.73 75.3495L1708.08 172.652L1672.67 15.1689L1672.09 12.5776L1671.5 15.1689L1636.09 172.652L1608.44 75.3495L1580.27 175.039H1593.84V243.721H1570.12V258.046H1601.14V384.026H1582.89V772.711H1539.07V900.322H1661.14H1683.06H1805.1V772.711H1761.31Z" fill="#F3DD25"/>
<path d="M1807.87 903.146H1536.33V769.916H1580.16V381.231H1598.4V260.841H1567.33V240.926H1591.07V177.863H1576.52L1608.33 65.2466L1635.68 161.501L1672.09 0L1708.4 161.501L1735.73 65.2466L1767.56 177.863H1753.01V240.926H1776.85V260.841H1745.8V381.231H1764.04V769.916H1807.87V903.146ZM1541.83 897.527H1802.37V775.506H1758.54V386.851H1740.3V255.251H1771.32V246.516H1747.75V172.244H1760.4L1735.73 85.4816L1707.79 183.861L1672.09 25.1262L1636.41 183.832L1608.44 85.4816L1583.94 172.244H1596.6V246.516H1572.85V255.251H1603.9V386.851H1585.63V775.506H1541.98L1541.83 897.527Z" fill="#F3DD25"/>
<path d="M793.087 772.711V384.026H774.813V258.046H805.862V243.721H782.117V175.039H795.677L767.508 75.3495L739.863 172.652L704.449 15.1689L703.867 12.5776L703.285 15.1689L667.87 172.652L640.225 75.3495L612.056 175.039H625.617V243.721H601.9V258.046H632.921V384.026H614.675V772.711H570.85V900.322H692.925H714.837H836.883V772.711H793.087Z" fill="#F3DD25"/>
<path d="M839.648 903.146H568.115V769.916H611.911V381.231H630.302V260.841H599.136V240.926H622.881V177.863H608.331L640.138 65.2465L667.492 161.501L703.78 0.0581055L740.097 161.501L767.421 65.2465L799.257 177.863H784.707V240.926H808.423V260.841H777.577V381.231H795.823V769.916H839.648V903.146ZM573.615 897.527H834.148V775.506H790.352V386.85H772.107V255.251H803.127V246.516H779.411V172.244H792.069L767.509 85.4814L739.544 183.861L703.867 25.1261L668.132 183.832L640.254 85.4814L615.752 172.244H628.41V246.516H604.665V255.251H635.715V386.85H617.44V775.506H573.615V897.527Z" fill="#F3DD25"/>
<path d="M1601.14 280.173H758.313V333.745H1601.14V280.173Z" fill="#F3DD25"/>
<path d="M1603.9 336.569H755.433V277.378H1603.9V336.569ZM761.049 330.95H1598.4V282.998H761.049V330.95Z" fill="#F3DD25"/>
<path d="M1539.07 842.675L1187.98 796.091L836.884 842.675V778.884H1539.07V842.675Z" fill="#F3DD25"/>
<path d="M1541.83 845.877L1187.98 798.798L834.148 845.877V776.001H1541.83V845.877ZM1187.98 793.266H1188.33L1536.33 839.559V781.678H839.648V839.559L1187.98 793.266Z" fill="#F3DD25"/>
<path d="M2372 817.461H1795.73V772.537H2249.9L1719.63 324.283L1747.69 289.665L2372 817.461Z" fill="#F3DD25"/>
<path d="M2219.69 799.322L1730.17 388.364L1737.15 379.688L2226.67 790.646L2219.69 799.322Z" fill="#F3DD25"/>
<path d="M1906.92 800.603H1814.41V456.464H1825.41V789.394H1895.92V512.977L1983.92 586.87V783.425H2053.88V645.595L2143.16 720.566V795.013H2132.19V725.865L2064.88 669.353V794.664H1972.92V592.169L1906.92 536.763V800.603Z" fill="#F3DD25"/>
<path d="M580.861 817.461H4.59265L628.906 289.665L656.958 324.283L126.697 772.537H580.861V817.461Z" fill="#F3DD25"/>
<path d="M156.873 799.322L149.889 790.646L639.44 379.688L646.424 388.364L156.873 799.322Z" fill="#F3DD25"/>
<path d="M562.15 800.603H469.669V536.763L403.671 592.169V794.664H311.714V669.353L244.406 725.865V795.013H233.406V720.566L322.685 645.595V783.425H392.671V586.87L480.669 512.977V789.394H551.15V456.464H562.15V800.603Z" fill="#F3DD25"/>
<path d="M1235.35 235.366H1149.39V333.774H1235.35V235.366Z" fill="#F3DD25"/>
<path d="M1284.7 840.229H-211.039V1483H1284.7V840.229Z" fill="black"/>
<path d="M98.2076 808.872C98.4059 809.095 98.5488 809.361 98.6246 809.65C98.7005 809.938 98.7072 810.24 98.6441 810.532L55.3141 1035.82C55.22 1036.28 54.9714 1036.69 54.6106 1036.98C54.2499 1037.27 53.7992 1037.43 53.3353 1037.42C52.8722 1037.42 52.4252 1037.25 52.0699 1036.96C51.7145 1036.66 51.4728 1036.25 51.3856 1035.79L10.4709 810.444C10.423 810.157 10.4372 809.863 10.5125 809.582C10.5878 809.301 10.7224 809.039 10.9074 808.814C11.0953 808.587 11.3309 808.404 11.5974 808.278C11.864 808.152 12.155 808.087 12.4497 808.086H96.578C96.8929 808.076 97.2056 808.142 97.4894 808.278C97.7732 808.415 98.0196 808.619 98.2076 808.872ZM53.3935 1024.53L94.1336 812.133H14.9232L53.3935 1024.53Z" fill="#1A1A1A"/>
<path d="M367.412 965.248L374.716 972.615H367.412V982.222L374.483 989.385H367.412V1004.12H371.049V1009.18H367.412V1013.4H157.222V1009.18H153.585V1004.12H157.222V989.385H150.151L157.222 982.222V972.615H149.947L157.222 965.248V872.517H151.81V868.325H157.222V850.623L153.905 847.245V839.559H179.716V847.275L177.621 850.186V885.299L182.83 890.568H177.621C177.621 890.568 179.134 907.572 195.081 908.037C211.028 908.503 212.279 891.325 212.279 891.325H207.565L212.629 886.201V851.613L210.242 849.167V839.559H235.734V848.672L233.581 850.856V915.404L239.401 921.227H233.581C233.581 921.227 235.385 949.584 262.681 950.516C289.918 949.584 291.781 921.227 291.781 921.227H285.961L291.781 915.404V850.972L289.627 848.789V839.559H315.119V849.051L312.733 851.496V886.143L317.796 891.267H313.082C313.082 891.267 314.479 908.329 330.28 907.979C346.082 907.63 347.74 890.51 347.74 890.51H342.531L347.74 885.24V850.186L345.674 847.275V839.559H371.486V847.129L368.139 850.506V868.208H373.552V872.401H368.139L367.412 965.248Z" fill="#1A1A1A"/>
<path d="M953.982 1055.01V1064.41H962.043V1132.34H960.21V1118.77H955.728V1141.19H953.953V1127.3L947.144 1134.14V1145.27C947.144 1145.27 929.393 1173.22 930.528 1183.12L934.165 1186.78V1208.5L935.708 1212.96H931.372C931.372 1212.96 912.02 1268.89 913.912 1283.59L918.946 1287.78H908.063L913.097 1283.59C915.046 1268.89 895.637 1212.96 895.637 1212.96H891.301L892.843 1208.5V1186.78L896.481 1183.12C897.616 1173.1 879.865 1145.27 879.865 1145.27V1134.2L873.026 1127.36V1141.25H871.28V1118.83H866.799V1132.4H864.965V1064.47H873.026V1055.01H863.074V1046.6H873.026V836.473H953.779V1046.65H963.731V1055.01H953.982Z" fill="#1A1A1A"/>
<path d="M1201.97 835.803H922.089V969.062H1201.97V835.803Z" fill="#1A1A1A"/>
<path d="M1202.09 832.833H1153.75V1008.08H1202.09V832.833Z" fill="#1A1A1A"/>
<path d="M985.411 848.497H976.768V985.279H985.411V848.497Z" fill="#1A1A1A"/>
<path d="M1012.76 848.497H1004.12V985.279H1012.76V848.497Z" fill="#1A1A1A"/>
<path d="M1044.43 848.497H1035.78V985.279H1044.43V848.497Z" fill="#1A1A1A"/>
<path d="M1073.9 848.497H1065.26V985.279H1073.9V848.497Z" fill="#1A1A1A"/>
<path d="M1105.04 848.497H1096.4V985.279H1105.04V848.497Z" fill="#1A1A1A"/>
<path d="M1133.73 848.497H1125.09V985.279H1133.73V848.497Z" fill="#1A1A1A"/>
<path d="M808.919 871.092V970.461H804.175V1002.66H812.265V1006.33H806.067V1023.89H809.617L802.255 1049.36L795.038 1024.5L785.813 1064.76L785.668 1065.4L785.493 1064.76L776.268 1024.5L769.052 1049.36L761.689 1023.89H765.239V1006.33H759.041V1002.66H767.131V970.461H762.388V871.092H750.951V838.483H782.787H788.52H820.355V871.092H808.919Z" fill="#1A1A1A"/>
<path d="M821.082 871.819H809.646V971.188H804.903V1001.96H813.022V1007.06H806.823V1023.16H810.723L802.255 1052.1L795.125 1027.5L785.668 1068.78L776.181 1027.5L769.051 1052.1L760.758 1023.3H764.512V1007.2H758.343V1002.11H766.432V971.188H761.66V871.819H750.224V837.784H821.082V871.819ZM751.679 870.392H763.086V969.762H767.858V1003.39H759.768V1005.51H765.967V1024.5H762.649L769.051 1046.68L776.356 1021.53L785.668 1062.09L794.98 1021.53L802.255 1046.68L808.657 1024.5H805.368V1005.51H811.538V1003.27H803.448V969.762H808.22V870.392H819.656V839.21H751.679V870.392Z" fill="#1A1A1A"/>
<path d="M556.301 871.092V970.461H551.528V1002.66H559.647V1006.33H553.449V1023.89H556.999L549.637 1049.36L542.42 1024.5L533.195 1064.76L533.02 1065.4L532.875 1064.76L523.65 1024.5L516.433 1049.36L509.071 1023.89H512.621V1006.33H506.423V1002.66H514.513V970.461H509.769V871.092H498.333V838.483H530.169H535.901H567.737V871.092H556.301Z" fill="#1A1A1A"/>
<path d="M568.465 871.819H557.028V971.188H552.256V1001.96H560.462V1007.06H554.293V1023.16H558.047L549.637 1052.1L542.507 1027.5L533.021 1068.75L523.563 1027.5L516.434 1052.1L508.082 1023.16H511.865V1007.06H505.667V1001.96H513.902V971.188H509.129V871.819H497.606V837.784H568.465V871.819ZM499.032 870.392H510.468V969.762H515.24V1003.39H507.151V1005.51H513.32V1024.5H510.032L516.434 1046.68L523.709 1021.53L533.021 1062.09L542.333 1021.53L549.637 1046.68L556.039 1024.5H552.721V1005.51H558.92V1003.27H550.83V969.762H555.573V870.392H567.01V839.21H499.032V870.392Z" fill="#1A1A1A"/>
<path d="M750.951 853.244L659.344 865.123L567.737 853.244V869.519H750.951V853.244Z" fill="#1A1A1A"/>
<path d="M751.679 870.247H567.01V852.429L659.402 864.424L751.737 852.429L751.679 870.247ZM568.348 854.059V868.82H750.107V854.117L659.402 865.763L568.348 854.059Z" fill="#1A1A1A"/>
<path d="M880.563 453.116C880.563 456.295 879.621 459.402 877.856 462.045C876.091 464.688 873.582 466.748 870.647 467.964C867.712 469.181 864.482 469.499 861.366 468.879C858.25 468.259 855.388 466.728 853.141 464.481C850.895 462.233 849.365 459.369 848.745 456.252C848.125 453.134 848.443 449.903 849.659 446.966C850.875 444.029 852.934 441.519 855.575 439.753C858.217 437.987 861.323 437.045 864.5 437.045C868.76 437.045 872.846 438.738 875.858 441.752C878.871 444.766 880.563 448.854 880.563 453.116Z" fill="#EBD51F"/>
<path d="M865.227 454.63V396.982" stroke="#B3B3B3" stroke-miterlimit="10"/>
<path d="M873.463 454.63H857.021C818.305 454.63 786.919 486.032 786.919 524.768V643.673C786.919 682.41 818.305 713.811 857.021 713.811H873.463C912.179 713.811 943.565 682.41 943.565 643.673V524.768C943.565 486.032 912.179 454.63 873.463 454.63Z" fill="#EBD51F"/>
<path d="M1408.76 800.049H-330V878.689H1408.76V800.049Z" fill="#EBD51F"/>
<path d="M1044.83 633.891H688.706V886.23H1044.83V633.891Z" fill="#EBD51F"/>
<path d="M698.455 744.207H579.086V1003.04H698.455V744.207Z" fill="#EBD51F"/>
<path d="M1289.04 590.043H1169.67V947.517H1289.04V590.043Z" fill="#EBD51F"/>
<path d="M1112.55 519.352H1038.17V825.175H1112.55V519.352Z" fill="#EBD51F"/>
<path d="M518.733 638.577H444.354V944.401H518.733V638.577Z" fill="#EBD51F"/>
<path d="M398.549 654.504C395.988 614.936 385.512 448.923 324.751 440.101C263.99 448.836 253.514 614.791 250.983 654.504C246.508 728.347 249.932 802.458 261.197 875.574H388.335C399.571 802.455 402.995 728.348 398.549 654.504Z" fill="#EBD51F"/>
<path d="M958.638 575.341H770.448V601.282H958.638V575.341Z" fill="#EBD51F"/>
<path d="M53.3069 788.87C21.5902 788.807 -9.23239 778.348 -34.4435 759.094C-59.6546 739.839 -77.8654 712.85 -86.2887 682.256C-94.712 651.663 -92.8838 619.151 -81.0839 589.695C-69.284 560.24 -48.1626 535.465 -20.952 519.161C6.25858 502.857 38.0592 495.923 69.5828 499.42C101.107 502.917 130.617 516.652 153.597 538.524C176.577 560.395 191.761 589.198 196.825 620.524C201.89 651.85 196.555 683.973 181.638 711.977C169.314 735.305 150.835 754.806 128.21 768.363C105.585 781.919 79.6787 789.012 53.3069 788.87ZM53.7434 506.455C40.1335 506.471 26.601 508.502 13.5853 512.482C-19.2752 522.595 -47.1007 544.762 -64.3131 574.539C-81.5255 604.316 -86.8529 639.501 -79.2273 673.042C-71.6016 706.583 -51.5865 736.001 -23.1942 755.398C5.19809 774.796 39.8692 782.74 73.8691 777.637C107.869 772.534 138.685 754.763 160.139 727.884C181.594 701.006 192.101 667.007 189.555 632.704C187.01 598.401 171.599 566.327 146.412 542.914C121.225 519.501 88.1237 506.477 53.7434 506.455Z" fill="#DEC600"/>
<path d="M38.6106 635.753C40.1845 632.794 42.6002 630.369 45.552 628.783C48.5039 627.198 51.8593 626.524 55.1939 626.847C58.5285 627.17 61.6924 628.476 64.2854 630.598C66.8785 632.721 68.7841 635.565 69.7613 638.771C70.7386 641.977 70.7435 645.401 69.7754 648.61C68.8074 651.819 66.9098 654.668 64.3228 656.798C61.7359 658.928 58.5757 660.242 55.242 660.575C51.9084 660.907 48.5511 660.243 45.5947 658.666C41.6328 656.553 38.6715 652.953 37.3619 648.656C36.0523 644.36 36.5015 639.718 38.6106 635.753Z" fill="#DEC600"/>
<path d="M53.5393 661.026C50.6961 661.036 47.8954 660.335 45.3912 658.988C41.36 656.798 38.3522 653.108 37.0181 648.717C35.684 644.326 36.1307 639.585 38.2617 635.521C39.6917 632.76 41.8324 630.431 44.4628 628.774C47.0931 627.118 50.1178 626.194 53.2244 626.098C56.331 626.002 59.407 626.737 62.1346 628.228C64.8623 629.719 67.1427 631.911 68.7405 634.578C70.3382 637.246 71.1954 640.291 71.2234 643.401C71.2514 646.51 70.4493 649.571 68.8999 652.267C67.3505 654.963 65.1099 657.196 62.4096 658.735C59.7093 660.275 56.6471 661.066 53.5393 661.026ZM38.9892 635.9C37.8151 637.821 37.0455 639.962 36.7276 642.191C36.4097 644.42 36.5502 646.691 37.1404 648.864C37.7307 651.037 38.7583 653.066 40.1603 654.828C41.5622 656.59 43.309 658.046 45.2935 659.108C47.278 660.171 49.4585 660.816 51.7012 661.006C53.9439 661.195 56.2016 660.924 58.336 660.209C60.4703 659.495 62.4363 658.352 64.1134 656.85C65.7906 655.348 67.1435 653.52 68.0893 651.476C70.1489 647.603 70.5887 643.07 69.3121 638.873C68.0355 634.675 65.1469 631.156 61.2799 629.087C57.4069 627.034 52.8793 626.598 48.6863 627.875C44.4932 629.151 40.9756 632.036 38.9019 635.9H38.9892Z" fill="#DEC600"/>
<path d="M53.1133 643.393L-13.0805 768.107L-12.3865 768.476L53.8072 643.762L53.1133 643.393Z" fill="#DEC600"/>
<path d="M53.2483 643.458L-42.4459 747.25L-41.8684 747.783L53.8258 643.991L53.2483 643.458Z" fill="#DEC600"/>
<path d="M53.2938 643.227L-65.4065 719.616L-64.9657 720.302L53.7346 643.912L53.2938 643.227Z" fill="#DEC600"/>
<path d="M53.4582 643.233L-80.7161 687.032L-80.4633 687.807L53.711 644.008L53.4582 643.233Z" fill="#DEC600"/>
<path d="M53.5423 643.263L-87.3475 651.588L-87.3012 652.373L53.5887 644.047L53.5423 643.263Z" fill="#DEC600"/>
<path d="M-84.7532 615.681L-84.9125 616.48L53.4964 644.101L53.6558 643.302L-84.7532 615.681Z" fill="#DEC600"/>
<path d="M-73.1779 581.568L-73.5341 582.301L53.4038 644.025L53.76 643.292L-73.1779 581.568Z" fill="#DEC600"/>
<path d="M-53.394 551.597L-53.905 552.194L53.3031 644.032L53.8141 643.435L-53.394 551.597Z" fill="#DEC600"/>
<path d="M-27.4132 526.987L-28.0574 527.435L52.3897 643.225L53.034 642.777L-27.4132 526.987Z" fill="#DEC600"/>
<path d="M5.29649 511.008L4.55884 511.278L53.1539 643.852L53.8915 643.581L5.29649 511.008Z" fill="#DEC600"/>
<path d="M40.4342 503.106L39.6521 503.182L53.1793 643.739L53.9614 643.664L40.4342 503.106Z" fill="#DEC600"/>
<path d="M53.9471 643.761L53.1614 643.615L75.5976 504.213L76.3832 504.358L53.9471 643.761Z" fill="#DEC600"/>
<path d="M110.106 514.251L53.1968 643.47L53.9158 643.787L110.825 514.568L110.106 514.251Z" fill="#DEC600"/>
<path d="M140.948 532.833L53.224 643.451L53.8395 643.939L141.563 533.322L140.948 532.833Z" fill="#DEC600"/>
<path d="M53.8016 643.993L53.3069 643.352L166.157 558.541L166.623 559.181L53.8016 643.993Z" fill="#DEC600"/>
<path d="M183.996 589.893L53.3511 643.315L53.6594 644.07L184.305 590.647L183.996 589.893Z" fill="#DEC600"/>
<path d="M193.433 624.48L53.5507 643.253L53.659 644.061L193.541 625.288L193.433 624.48Z" fill="#DEC600"/>
<path d="M53.6147 643.246L53.5153 644.055L193.596 661.288L193.695 660.479L53.6147 643.246Z" fill="#DEC600"/>
<path d="M53.6992 643.235L53.3986 643.993L184.577 696.09L184.878 695.332L53.6992 643.235Z" fill="#DEC600"/>
<path d="M53.7685 643.377L53.3034 644.01L167.048 727.607L167.513 726.973L53.7685 643.377Z" fill="#DEC600"/>
<path d="M53.9143 643.374L53.2816 643.888L142.216 753.534L142.848 753.02L53.9143 643.374Z" fill="#DEC600"/>
<path d="M53.8946 643.55L53.1791 643.875L111.505 772.46L112.221 772.135L53.8946 643.55Z" fill="#DEC600"/>
<path d="M53.9664 643.574L53.1921 643.708L77.1418 782.867L77.9162 782.734L53.9664 643.574Z" fill="#DEC600"/>
<path d="M53.1561 643.587L41.1498 784.283L41.9327 784.35L53.9389 643.654L53.1561 643.587Z" fill="#DEC600"/>
<path d="M53.2173 643.671L14.623 779.496L15.4068 779.719L54.001 643.894L53.2173 643.671Z" fill="#DEC600"/>
<path d="M53.6853 521.77V535.366C70.1577 535.344 86.4179 539.083 101.228 546.297C116.039 553.511 129.009 564.011 139.151 576.997C149.294 589.983 156.341 605.114 159.757 621.236C163.173 637.359 162.868 654.048 158.864 670.035C154.86 686.022 147.264 700.884 136.653 713.49C126.042 726.096 112.697 736.113 97.6321 742.78C82.5676 749.447 66.1815 752.587 49.7209 751.962C33.2604 751.336 17.1595 746.962 2.64375 739.171C-18.6273 727.784 -35.4871 709.614 -45.2593 687.546C-55.0314 665.478 -57.1559 640.777 -51.2954 617.363C-45.4349 593.949 -31.9253 573.165 -12.9113 558.31C6.1028 543.454 29.5317 535.379 53.6562 535.366V521.77H53.6853ZM53.6562 521.77C23.9068 521.731 -4.82918 532.582 -27.1358 552.275C-49.4424 571.969 -63.779 599.146 -67.4434 628.684C-71.1079 658.222 -63.8471 688.081 -47.0296 712.633C-30.2121 737.185 -4.99936 754.735 23.8566 761.975C52.7126 769.214 83.2188 765.644 109.626 751.936C136.032 738.229 156.516 715.33 167.216 687.557C177.915 659.785 178.092 629.055 167.713 601.161C157.333 573.267 137.114 550.134 110.867 536.123C93.2599 526.722 73.6137 521.793 53.6562 521.77Z" fill="#DEC600"/>
<path d="M-18.6751 805.126L-40.1965 793.653C-43.7315 791.769 -46.3736 788.556 -47.5413 784.723C-48.7091 780.889 -48.307 776.749 -46.4234 773.212L-43.8371 768.355C-41.9535 764.819 -38.7428 762.175 -34.9112 761.007C-31.0797 759.838 -26.9412 760.241 -23.4061 762.125L-1.88471 773.598C1.64352 775.479 4.28045 778.686 5.44596 782.512C6.61148 786.338 6.21012 790.47 4.33018 794L1.74387 798.857C-0.13971 802.394 -3.35045 805.037 -7.18199 806.205C-11.0135 807.374 -15.152 806.971 -18.6871 805.087L-18.6751 805.126Z" fill="#DEC600"/>
<path d="M-9.46189 809.133C-11.1577 809.132 -12.827 808.712 -14.3216 807.911L-44.8185 791.635C-47.2496 790.338 -49.0661 788.128 -49.8683 785.491C-50.6705 782.853 -50.3928 780.005 -49.0962 777.573L-41.7339 763.86C-41.1041 762.645 -40.2356 761.57 -39.1805 760.7C-38.1254 759.829 -36.9054 759.181 -35.5938 758.794C-34.2884 758.392 -32.9161 758.254 -31.557 758.389C-30.1979 758.524 -28.8794 758.929 -27.6785 759.58L2.84743 775.855C5.27284 777.158 7.08422 779.368 7.88577 782.003C8.68731 784.638 8.41385 787.484 7.12514 789.918L-0.266281 803.776C-0.908405 804.979 -1.78126 806.042 -2.83487 806.907C-3.88848 807.771 -5.10217 808.419 -6.4064 808.813C-7.40228 809.077 -8.43298 809.185 -9.46189 809.133ZM-32.5674 758.997C-33.552 758.991 -34.5323 759.128 -35.4774 759.405C-36.7141 759.752 -37.8676 760.346 -38.868 761.152C-39.8684 761.957 -40.6949 762.958 -41.2974 764.093L-48.6888 777.951C-49.8735 780.196 -50.1223 782.819 -49.3808 785.246C-48.6393 787.674 -46.9677 789.709 -44.7312 790.908L-14.2052 807.183C-13.0982 807.787 -11.8814 808.162 -10.6269 808.287C-9.37227 808.412 -8.10537 808.284 -6.9011 807.911C-4.47223 807.162 -2.43435 805.489 -1.22657 803.252L6.13575 789.394C6.73193 788.283 7.10324 787.066 7.22842 785.812C7.3536 784.558 7.2302 783.291 6.86525 782.085C6.50029 780.879 5.90098 779.756 5.10167 778.782C4.30235 777.808 3.31876 777.001 2.20724 776.408L-28.3188 760.133C-29.6269 759.428 -31.082 759.039 -32.5674 758.997Z" fill="#DEC600"/>
<path d="M45.0017 467.008L69.3825 467.506C73.3872 467.588 77.1954 469.258 79.9693 472.149C82.7432 475.04 84.2557 478.916 84.1739 482.922L84.0616 488.424C83.9798 492.431 82.3105 496.241 79.4209 499.016C76.5313 501.792 72.6581 503.305 68.6534 503.223L44.2726 502.725C42.2935 502.684 40.3418 502.254 38.5288 501.459C36.7158 500.664 35.0771 499.519 33.7062 498.091C32.3353 496.662 31.2592 494.977 30.5391 493.132C29.8191 491.287 29.4693 489.319 29.5097 487.338L29.6221 481.837C29.7038 477.83 31.3731 474.02 34.2627 471.245C37.1523 468.469 41.0255 466.956 45.0302 467.038L45.0017 467.008Z" fill="#DEC600"/>
<path d="M73.9387 503.718H73.7059L39.135 503.019C36.3795 502.951 33.7628 501.795 31.855 499.804C29.9473 497.814 28.9031 495.15 28.95 492.392L29.2701 476.699C29.2953 475.334 29.5912 473.988 30.1407 472.739C30.6902 471.489 31.4824 470.361 32.4711 469.421C34.4663 467.512 37.1319 466.467 39.8916 466.509L74.4625 467.237C75.8269 467.263 77.1726 467.559 78.4229 468.106C79.6732 468.653 80.8036 469.441 81.7494 470.425C82.6952 471.409 83.438 472.57 83.9352 473.841C84.4325 475.113 84.6746 476.47 84.6476 477.835L84.3275 493.528C84.2667 496.247 83.1463 498.834 81.2054 500.738C79.2645 502.642 76.6568 503.711 73.9387 503.718ZM39.5715 467.324C37.0646 467.331 34.6598 468.319 32.8709 470.076C31.082 471.833 30.0508 474.221 29.9976 476.728L29.6775 492.421C29.6307 494.965 30.5939 497.423 32.3559 499.257C34.1179 501.091 36.5349 502.151 39.0768 502.204L73.6477 502.903C74.9061 502.936 76.1585 502.718 77.3323 502.264C78.5062 501.809 79.5782 501.126 80.4862 500.253C82.3063 498.484 83.3525 496.066 83.3962 493.528L83.7163 477.806C83.7631 475.262 82.7999 472.804 81.0379 470.97C79.2759 469.136 76.859 468.077 74.317 468.023L39.7461 467.324H39.5715Z" fill="#DEC600"/>
<path d="M156.196 499.685L175.026 515.188C178.113 517.73 180.065 521.394 180.451 525.375C180.838 529.356 179.628 533.328 177.088 536.417L173.593 540.666C171.048 543.76 167.379 545.717 163.392 546.104C159.405 546.492 155.428 545.279 152.335 542.733L133.504 527.23C131.976 525.971 130.71 524.424 129.779 522.676C128.848 520.928 128.271 519.014 128.079 517.043C127.888 515.071 128.086 513.082 128.663 511.187C129.24 509.293 130.185 507.531 131.443 506.001L134.937 501.752C137.482 498.658 141.152 496.701 145.139 496.314C149.126 495.926 153.103 497.139 156.196 499.685Z" fill="#DEC600"/>
<path d="M162.636 548.672C160.236 548.676 157.91 547.842 156.059 546.313L129.345 524.302C127.239 522.553 125.907 520.043 125.64 517.317C125.373 514.591 126.192 511.87 127.919 509.745L137.901 497.604C139.657 495.509 142.165 494.187 144.885 493.92C147.605 493.653 150.321 494.464 152.451 496.177L179.252 518.13C181.359 519.879 182.69 522.389 182.957 525.115C183.224 527.841 182.405 530.563 180.678 532.688L170.697 544.828C169.832 545.883 168.767 546.755 167.563 547.395C166.359 548.035 165.041 548.429 163.683 548.555L162.636 548.672ZM145.932 494.576H145.001C143.745 494.699 142.525 495.068 141.412 495.662C140.298 496.257 139.313 497.065 138.512 498.041L128.531 510.153C126.92 512.122 126.156 514.651 126.407 517.184C126.658 519.717 127.903 522.047 129.869 523.662L156.554 545.644C157.525 546.447 158.646 547.051 159.851 547.42C161.056 547.789 162.323 547.916 163.577 547.794C164.832 547.672 166.05 547.304 167.162 546.71C168.273 546.116 169.257 545.309 170.056 544.334L180.038 532.222C181.644 530.252 182.408 527.728 182.163 525.197C181.918 522.667 180.683 520.336 178.728 518.712L152.014 496.731C150.3 495.326 148.149 494.564 145.932 494.576Z" fill="#DEC600"/>
<path d="M223.317 594.223L228.499 618.064C229.35 621.98 228.612 626.074 226.446 629.445C224.28 632.817 220.865 635.189 216.951 636.041L211.576 637.21C207.67 638.06 203.586 637.323 200.223 635.16C196.86 632.997 194.493 629.587 193.643 625.678L188.461 601.837C187.61 597.921 188.348 593.827 190.514 590.456C192.68 587.085 196.095 584.712 200.009 583.86L205.327 582.703C207.264 582.278 209.266 582.238 211.218 582.587C213.171 582.936 215.036 583.666 216.706 584.735C218.377 585.805 219.82 587.194 220.954 588.821C222.089 590.449 222.891 592.285 223.317 594.223Z" fill="#DEC600"/>
<path d="M204.453 638.957C202.087 638.946 199.796 638.13 197.955 636.643C196.115 635.156 194.835 633.087 194.326 630.775L186.964 596.944C186.384 594.25 186.894 591.435 188.383 589.116C189.872 586.797 192.218 585.163 194.908 584.57L210.244 581.251C211.576 580.955 212.953 580.926 214.296 581.164C215.64 581.402 216.923 581.904 218.072 582.64C219.221 583.376 220.214 584.331 220.993 585.452C221.772 586.573 222.322 587.836 222.611 589.17L229.974 622.973C230.554 625.667 230.043 628.482 228.555 630.8C227.066 633.119 224.72 634.754 222.029 635.347L206.694 638.666C205.958 638.833 205.207 638.931 204.453 638.957ZM212.485 581.804C211.79 581.81 211.097 581.888 210.418 582.037L195.083 585.356C192.599 585.9 190.433 587.407 189.058 589.546C187.684 591.686 187.213 594.283 187.749 596.769L195.112 630.601C195.655 633.085 197.161 635.253 199.3 636.628C201.438 638.003 204.034 638.474 206.519 637.938L221.855 634.59C224.338 634.046 226.504 632.539 227.879 630.399C229.254 628.26 229.724 625.663 229.188 623.176L221.826 589.374C221.352 587.242 220.171 585.333 218.475 583.959C216.779 582.584 214.667 581.825 212.485 581.804Z" fill="#DEC600"/>
<path d="M217.407 710.061L206.662 732.093C204.906 735.694 201.791 738.45 198.004 739.754C194.216 741.059 190.066 740.804 186.466 739.046L181.523 736.633C177.923 734.876 175.169 731.76 173.865 727.97C172.562 724.181 172.817 720.028 174.573 716.427L185.267 694.499C187.02 690.905 190.129 688.154 193.909 686.852C197.689 685.551 201.831 685.805 205.424 687.559L210.367 689.972C213.967 691.73 216.722 694.846 218.025 698.635C219.329 702.425 219.074 706.577 217.318 710.179L217.407 710.061Z" fill="#DEC600"/>
<path d="M195.49 742.635C193.918 742.628 192.367 742.27 190.95 741.587L176.837 734.745C174.365 733.534 172.474 731.392 171.58 728.789C170.685 726.185 170.859 723.332 172.064 720.857L187.226 689.733C188.407 687.286 190.495 685.396 193.046 684.463C194.337 684.016 195.704 683.83 197.067 683.915C198.431 683.999 199.764 684.354 200.99 684.958L215.074 691.859C217.542 693.043 219.443 695.154 220.363 697.732C221.284 700.311 221.151 703.149 219.992 705.63L204.802 736.725C203.964 738.487 202.645 739.977 200.997 741.023C199.35 742.068 197.441 742.627 195.49 742.635ZM172.792 721.148C172.236 722.277 171.909 723.505 171.829 724.761C171.749 726.018 171.918 727.277 172.326 728.468C172.735 729.658 173.374 730.756 174.208 731.699C175.042 732.641 176.054 733.409 177.186 733.959L191.3 740.859C193.588 741.974 196.225 742.133 198.632 741.304C201.038 740.474 203.017 738.722 204.133 736.433L219.294 705.339C220.408 703.049 220.568 700.411 219.738 698.003C218.909 695.595 217.158 693.616 214.871 692.499L200.757 685.628C199.631 685.072 198.405 684.744 197.152 684.664C195.898 684.584 194.641 684.754 193.453 685.162C192.255 685.565 191.15 686.206 190.205 687.047C189.26 687.887 188.494 688.91 187.953 690.053L172.792 721.148Z" fill="#DEC600"/>
<path d="M141.024 797.417L119.054 808.005C115.445 809.744 111.294 809.978 107.513 808.655C103.732 807.332 100.632 804.56 98.8932 800.949L96.5064 795.992C94.7681 792.381 94.5346 788.228 95.8572 784.445C97.1797 780.662 99.95 777.56 103.559 775.821L125.529 765.232C127.312 764.373 129.247 763.873 131.224 763.762C133.2 763.651 135.179 763.93 137.047 764.584C138.916 765.238 140.637 766.254 142.114 767.573C143.59 768.893 144.792 770.49 145.651 772.275L148.037 777.232C149.776 780.843 150.009 784.996 148.687 788.779C147.364 792.562 144.594 795.664 140.985 797.403L141.024 797.417Z" fill="#DEC600"/>
<path d="M110.168 811.579C109 811.573 107.84 811.376 106.735 810.997C104.177 810.06 102.088 808.158 100.915 805.698L94.1052 791.548C92.914 789.061 92.7566 786.203 93.6675 783.6C94.5784 780.997 96.4832 778.861 98.9649 777.66L130.131 762.637C132.618 761.449 135.473 761.292 138.075 762.2C139.346 762.658 140.514 763.361 141.513 764.27C142.511 765.179 143.321 766.277 143.895 767.499L150.734 781.649C151.917 784.138 152.071 786.993 151.16 789.594C150.25 792.195 148.35 794.331 145.874 795.537L114.679 810.444C113.282 811.163 111.739 811.552 110.168 811.579ZM99.0231 778.01L99.1977 778.388C96.9075 779.495 95.1495 781.465 94.3094 783.866C93.4692 786.268 93.6156 788.905 94.7163 791.199L101.526 805.349C102.632 807.64 104.601 809.399 107.001 810.24C109.401 811.08 112.037 810.934 114.33 809.833L145.496 794.809C147.786 793.703 149.544 791.733 150.384 789.331C151.224 786.929 151.078 784.292 149.977 781.999L143.168 767.849C142.062 765.557 140.093 763.798 137.693 762.958C135.292 762.117 132.657 762.264 130.364 763.365L99.1977 778.417L99.0231 778.01Z" fill="#DEC600"/>
<path d="M96.6657 870.77H12.5374C12.2427 870.77 11.9518 870.704 11.6852 870.578C11.4187 870.452 11.1831 870.269 10.9951 870.042C10.8102 869.817 10.6755 869.556 10.6003 869.274C10.525 868.993 10.5108 868.699 10.5586 868.412L51.2987 643.12C51.3859 642.665 51.6277 642.254 51.983 641.957C52.3383 641.66 52.7854 641.495 53.2484 641.49C53.7124 641.487 54.1631 641.645 54.5238 641.937C54.8846 642.229 55.1331 642.637 55.2273 643.091L98.6446 868.383C98.7076 868.674 98.701 868.976 98.6251 869.265C98.5492 869.553 98.4063 869.82 98.208 870.042C98.0229 870.273 97.7878 870.458 97.5207 870.584C97.2535 870.71 96.9611 870.774 96.6657 870.77ZM14.9236 866.781H94.2504L53.5103 654.242L14.9236 866.781Z" fill="#DEC600"/>
<path d="M367.412 713.666L374.716 706.3H367.412V696.896L374.484 689.733H367.412V675.001H371.05V669.935H367.412V665.713H157.222V669.935H153.585V675.001H157.222V689.733H150.151L157.222 696.896V706.387H149.947L157.222 713.753V806.368H151.81V810.589H157.222V828.291L153.905 831.669V839.239H179.717V831.523L177.622 828.612V793.586L182.83 788.346H177.622C177.622 788.346 179.135 771.343 195.082 770.877C211.028 770.411 212.28 787.589 212.28 787.589H207.566L212.629 792.713V827.185L210.243 829.631V839.122H235.734V830.009L233.581 827.826V763.394L239.401 757.571H233.581C233.581 757.571 235.385 729.213 262.681 728.281C289.919 729.213 291.781 757.571 291.781 757.571H285.961L291.781 763.394V827.913L289.628 830.096V839.21H315.119V829.718L312.733 827.272V792.975L317.797 787.851H313.082C313.082 787.851 314.479 770.789 330.281 771.139C346.082 771.488 347.741 788.608 347.741 788.608H342.532L347.741 793.848V828.99L345.674 831.902V839.617H371.486V832.047L368.14 828.67V810.968H373.552V806.368H368.14L367.412 713.666Z" fill="#DEC600"/>
<path d="M993.957 544.672V531.151H1005.57V433.45H1002.93V452.956H996.472V420.724H993.915V440.691L984.106 430.854V414.906C984.106 414.906 958.535 374.72 960.17 360.487L965.41 355.213V323.985L967.632 317.539H961.385C961.385 317.539 933.509 237.167 936.234 216.028L943.486 210H927.808L935.06 216.028C937.868 236.958 909.908 317.539 909.908 317.539H903.662L905.884 323.985V355.213L911.124 360.487C912.759 374.887 887.188 414.906 887.188 414.906V430.854L877.337 440.691V420.724H874.821V452.956H868.366V433.408H865.725V531.109H877.337V544.63H863V556.728H877.337V859H993.664V556.77H1008V544.672H993.957Z" fill="#DEC600"/>
<path d="M967.114 497.307C969.925 480.056 958.198 463.796 940.923 460.989C923.647 458.183 907.365 469.893 904.554 487.144C901.744 504.395 913.47 520.654 930.746 523.461C948.021 526.267 964.304 514.558 967.114 497.307Z" fill="#FDE837"/>
<path d="M1201.97 709.822H922.089V843.081H1201.97V709.822Z" fill="#DEC600"/>
<path d="M1202.09 670.837H1153.75V846.08H1202.09V670.837Z" fill="#DEC600"/>
<path d="M985.411 693.634H976.768V830.416H985.411V693.634Z" fill="#DEC600"/>
<path d="M1012.76 693.634H1004.12V830.416H1012.76V693.634Z" fill="#DEC600"/>
<path d="M1044.43 693.634H1035.78V830.416H1044.43V693.634Z" fill="#DEC600"/>
<path d="M1073.9 693.634H1065.26V830.416H1073.9V693.634Z" fill="#DEC600"/>
<path d="M1105.04 693.634H1096.4V830.416H1105.04V693.634Z" fill="#DEC600"/>
<path d="M1133.73 693.634H1125.09V830.416H1133.73V693.634Z" fill="#DEC600"/>
<path d="M913.62 409.414V341.78" stroke="#FEE829" stroke-miterlimit="10"/>
<path d="M1195.11 716.81V649.205" stroke="#FEE829" stroke-miterlimit="10"/>
<path d="M1162.48 716.81V649.205" stroke="#FEE829" stroke-miterlimit="10"/>
<path d="M808.919 807.796V708.426H804.176V676.225H812.266V672.586H806.068V655.029H809.618L802.255 629.525L795.039 654.418L785.814 614.152L785.668 613.482L785.494 614.152L776.269 654.418L769.052 629.525L761.69 655.029H765.24V672.586H759.042V676.225H767.132V708.426H762.388V807.796H750.952V840.404H782.788H788.52H820.356V807.796H808.919Z" fill="#DEC600"/>
<path d="M821.083 841.132H750.224V807.096H761.661V707.727H766.433V676.953H758.343V671.857H764.513V655.757H760.759L769.052 626.962L776.182 651.564L785.668 610.279L795.126 651.564L802.255 626.962L810.578 655.757H806.795V671.857H812.993V676.953H804.903V707.727H809.676V807.096H821.112L821.083 841.132ZM751.679 839.705H819.657V808.523H808.221V709.154H803.448V675.526H811.538V673.284H805.369V654.301H808.657L802.255 632.116L794.98 657.271L785.668 616.714L776.356 657.271L769.052 632.116L762.65 654.301H765.968V673.284H759.769V675.526H767.859V709.154H763.087V808.523H751.679V839.705Z" fill="#DEC600"/>
<path d="M556.302 807.796V708.427H551.529V676.226H559.648V672.586H553.45V655.03H557L549.638 629.525L542.421 654.419L533.196 614.153L533.022 613.483L532.876 614.153L523.651 654.419L516.434 629.525L509.072 655.03H512.622V672.586H506.424V676.226H514.514V708.427H509.771V807.796H498.334V840.405H530.17H535.902H567.738V807.796H556.302Z" fill="#DEC600"/>
<path d="M568.465 841.132H497.607V807.097H509.043V707.727H513.903V676.953H505.784V671.858H511.982V655.757H508.083L516.405 626.962L523.535 651.564L532.992 610.309L542.479 651.564L549.609 626.962L557.902 655.757H554.148V671.858H560.463V676.953H552.373V707.727H557.145V807.097H568.582L568.465 841.132ZM499.033 839.705H567.01V808.523H555.574V709.154H550.831V675.526H558.921V673.284H552.722V654.301H556.04L549.638 632.116L542.333 657.271L533.022 616.714L523.709 657.271L516.434 632.116L510.032 654.301H513.321V673.284H507.152V675.526H515.241V709.154H510.469V808.523H499.033V839.705Z" fill="#DEC600"/>
<path d="M767.132 681.902H547.222V695.586H767.132V681.902Z" fill="#DEC600"/>
<path d="M767.859 696.314H546.524V681.174H767.859V696.314ZM547.95 694.887H766.433V682.63H547.95V694.887Z" fill="#DEC600"/>
<path d="M750.95 825.671L659.343 813.763L567.736 825.671V809.366H750.95V825.671Z" fill="#DEC600"/>
<path d="M751.679 826.487L659.402 814.491L567.068 826.487V808.668H751.737L751.679 826.487ZM659.402 813.065L750.195 824.856V810.095H568.465V825.002L659.402 813.065Z" fill="#DEC600"/>
<path d="M968.271 819.237H817.911V807.765H936.406L798.064 693.169L805.369 684.318L968.271 819.237Z" fill="#DEC600"/>
<path d="M802.63 707.285L800.8 709.512L928.533 814.561L930.362 812.334L802.63 707.285Z" fill="#DEC600"/>
<path d="M846.924 814.927H822.8V726.942H825.651V812.045H844.043V741.412L867.003 760.279V810.531H885.277V775.302L908.557 794.46V813.501H905.706V795.828L888.129 781.387V813.413H864.151V761.647L846.924 747.468V814.927Z" fill="#DEC600"/>
<path d="M500.924 819.237H350.564L513.466 684.318L520.799 693.169L382.428 807.765H500.924V819.237Z" fill="#DEC600"/>
<path d="M516.2 707.241L388.504 812.335L390.334 814.561L518.03 709.467L516.2 707.241Z" fill="#DEC600"/>
<path d="M496.064 814.927H471.911V747.468L454.713 761.647V813.413H430.705V781.387L413.158 795.828V813.501H410.277V794.46L433.586 775.302V810.531H451.832V760.279L474.792 741.412V812.045H493.183V726.942H496.064V814.927Z" fill="#DEC600"/>
<path d="M671.712 670.431H649.276V695.586H671.712V670.431Z" fill="#DEC600"/>
</svg>
