<svg width="127" height="237" viewBox="0 0 127 237" fill="none" xmlns="http://www.w3.org/2000/svg">
<path d="M3.35233 26.9829L3.28394 30.689L25.0242 31.0857L25.0926 27.3796L3.35233 26.9829Z" fill="#474746"/>
<g opacity="0.4">
<path opacity="0.4" d="M13.2539 28.5952C13.2539 27.9774 13.2539 27.5656 13.2539 27.1537L3.10645 26.9478V30.6546L13.461 30.8605C13.461 30.2427 13.2539 29.419 13.2539 28.5952Z" fill="#73797F"/>
</g>
<path d="M25.0581 27.3594L3.31349 26.9475C3.31349 26.9475 2.8993 10.2668 14.4964 11.0906C26.0936 11.9143 25.0581 27.3594 25.0581 27.3594Z" fill="#FFFCDF"/>
<path d="M20.502 13.562C20.9161 18.9163 16.5672 23.8587 11.1828 24.4765C8.28356 24.6824 5.59136 23.6528 3.72754 22.0053C3.31335 24.8884 3.31335 26.9477 3.31335 26.9477L25.058 27.3596C25.058 27.3596 25.6793 17.8866 20.502 13.562Z" fill="#EFEFEF"/>
<path d="M9.52622 30.8602L3.10638 30.6543L0 210.229L3.72765 206.11L7.24821 210.847L9.31913 31.684L9.52622 30.8602Z" fill="#17B1BA"/>
<path d="M21.7447 210.641L24.851 31.0664H17.6028L14.9106 211.465L17.6028 206.522L21.7447 210.641Z" fill="#006B96"/>
<path d="M9.52618 30.8604L9.31909 31.6841L7.24817 210.847L10.9758 206.316L14.9106 211.464L17.6028 31.0663L9.52618 30.8604Z" fill="#009DB4"/>
<path d="M8.07654 229.998L10.9758 237L13.8751 229.998C11.5971 228.969 9.52618 229.38 8.07654 229.998Z" fill="#006B96"/>
<path d="M17.6028 206.522L14.7035 211.465L10.7688 206.316L7.04112 210.847L3.52056 205.904L0 210.229L8.07658 229.793C9.52622 229.175 11.5971 228.969 13.8751 229.793L21.7446 210.435L17.6028 206.522Z" fill="#EFD0A8"/>
<path d="M62.7488 86.4621C66.2694 87.6977 69.1686 84.6087 69.3757 78.4307C65.8552 79.0485 63.163 78.8425 61.5063 78.6366C60.885 81.1078 60.0566 85.6384 62.7488 86.4621Z" fill="#FFD3AB"/>
<g opacity="0.6">
<path opacity="0.6" d="M67.3049 78.8425C66.8907 83.579 64.6127 86.2562 61.7134 85.8443C61.9205 86.0502 62.3347 86.4621 62.7488 86.4621C66.2694 87.6977 69.1687 84.6087 69.3758 78.4307C68.7545 78.6366 67.9261 78.8425 67.3049 78.8425Z" fill="#F2C5A0"/>
</g>
<path d="M76.8312 87.4917C76.8312 87.4917 67.0978 101.907 50.7376 108.703C47.8383 123.942 50.9447 140.211 50.9447 140.211C50.9447 140.211 58.8142 143.094 71.6539 141.652C88.8425 139.593 94.641 134.445 94.641 134.445C79.3163 119.206 76.8312 87.4917 76.8312 87.4917Z" fill="#FF7D7D"/>
<path d="M73.7248 77.6069C72.2752 78.0188 70.8256 78.2247 69.3759 78.4307C69.1688 84.4028 66.2696 87.4918 62.749 86.4621C59.8497 85.4324 60.8852 80.9019 61.5064 78.8425C60.471 78.8425 59.8497 78.6366 59.4355 78.4307C58.6072 79.6663 56.9504 82.7553 55.2937 87.2858C53.2228 93.8757 51.9802 101.495 51.9802 101.495C51.9802 101.495 65.4412 95.5232 71.4468 86.0502C72.0681 85.2265 70.8256 83.579 71.4468 81.1078C71.861 78.4307 73.7248 77.6069 73.7248 77.6069Z" fill="#FF7D7D"/>
<path d="M76.2098 93.0524C76.2098 93.4642 76.0027 93.6702 75.5886 93.6702C75.3815 93.6702 74.9673 93.4642 74.9673 93.0524C74.9673 92.8464 75.1744 92.4346 75.5886 92.4346C76.0027 92.6405 76.2098 92.8464 76.2098 93.0524Z" fill="#FFC2C2"/>
<path d="M77.4524 103.349C77.4524 103.555 77.2453 103.967 76.8311 103.967C76.624 103.967 76.2098 103.761 76.2098 103.349C76.2098 103.143 76.4169 102.731 76.8311 102.731C77.0382 102.731 77.4524 102.937 77.4524 103.349Z" fill="#FFC2C2"/>
<path d="M53.844 107.262C54.0511 107.673 54.4653 107.879 54.8795 107.879C55.5007 107.879 55.9149 107.468 55.9149 106.85C55.9149 106.644 55.9149 106.438 55.7078 106.232C55.0865 106.438 54.4653 107.056 53.844 107.262Z" fill="#FFC2C2"/>
<path d="M53.637 136.299C53.637 136.916 53.0157 137.534 52.3944 137.534C51.7731 137.534 51.1519 136.916 51.1519 136.299C51.1519 135.681 51.7731 135.063 52.3944 135.063C53.2228 135.063 53.637 135.475 53.637 136.299Z" fill="#FFC2C2"/>
<path d="M59.0212 129.297C59.0212 130.326 58.1929 131.15 57.1574 131.15C56.1219 131.15 55.2936 130.326 55.2936 129.297C55.2936 128.267 56.1219 127.443 57.1574 127.443C58.1929 127.443 59.0212 128.267 59.0212 129.297Z" fill="#FFC2C2"/>
<path d="M66.0624 135.474C66.0624 136.092 65.6482 136.504 65.0269 136.504C64.4056 136.504 63.9915 136.092 63.9915 135.474C63.9915 134.857 64.4056 134.445 65.0269 134.445C65.6482 134.445 66.0624 134.857 66.0624 135.474Z" fill="#FFC2C2"/>
<path d="M65.234 122.501C65.234 123.119 64.8198 123.736 63.9915 123.736C63.3702 123.736 62.7489 123.119 62.7489 122.501C62.7489 121.883 63.3702 121.265 63.9915 121.265C64.6127 121.265 65.234 121.883 65.234 122.501Z" fill="#FFC2C2"/>
<path d="M76.2098 114.675C76.2098 115.705 75.3815 116.529 74.346 116.529C73.3105 116.529 72.4822 115.705 72.4822 114.675C72.4822 113.646 73.3105 112.822 74.346 112.822C75.3815 112.822 76.2098 113.646 76.2098 114.675Z" fill="#FFC2C2"/>
<path d="M73.7247 138.152C73.7247 138.563 73.5176 138.769 73.1035 138.769C72.6893 138.769 72.4822 138.563 72.4822 138.152C72.4822 137.74 72.6893 137.534 73.1035 137.534C73.5176 137.328 73.7247 137.74 73.7247 138.152Z" fill="#FFC2C2"/>
<path d="M80.1446 132.591C80.1446 133.415 79.5234 134.033 78.695 134.033C77.8666 134.033 77.2454 133.415 77.2454 132.591C77.2454 131.768 77.8666 131.15 78.695 131.15C79.5234 131.15 80.1446 131.768 80.1446 132.591Z" fill="#FFC2C2"/>
<path d="M71.4467 128.679C71.4467 129.503 70.8254 129.914 70.2041 129.914C69.5828 129.914 68.9615 129.297 68.9615 128.679C68.9615 128.061 69.5828 127.443 70.2041 127.443C70.8254 127.237 71.4467 127.855 71.4467 128.679Z" fill="#FFC2C2"/>
<path d="M58.1929 119.412C58.1929 119.823 57.7787 120.235 57.3645 120.235C56.9503 120.235 56.5361 119.823 56.5361 119.412C56.5361 119 56.9503 118.588 57.3645 118.588C57.7787 118.588 58.1929 119 58.1929 119.412Z" fill="#FFC2C2"/>
<path d="M53.637 114.263C53.637 115.087 53.0157 115.705 52.1873 115.705C51.3589 115.705 50.7377 115.087 50.7377 114.263C50.7377 113.44 51.3589 112.822 52.1873 112.822C53.0157 112.822 53.637 113.44 53.637 114.263Z" fill="#FFC2C2"/>
<path d="M64.1985 111.586C64.1985 112.41 63.5772 112.822 62.9559 112.822C62.1276 112.822 61.7134 112.204 61.7134 111.586C61.7134 110.762 62.3347 110.35 62.9559 110.35C63.5772 110.145 64.1985 110.762 64.1985 111.586Z" fill="#FFC2C2"/>
<path d="M76.0028 122.707C76.0028 123.119 75.5886 123.53 75.3815 123.53C74.9674 123.53 74.7603 123.119 74.7603 122.707C74.7603 122.295 75.1744 122.089 75.3815 122.089C75.5886 121.883 76.0028 122.295 76.0028 122.707Z" fill="#FFC2C2"/>
<path d="M84.4935 138.152C84.4935 138.563 84.0793 138.769 83.8723 138.769C83.4581 138.769 83.251 138.358 83.251 138.152C83.251 137.74 83.6652 137.534 83.8723 137.534C84.2864 137.328 84.4935 137.74 84.4935 138.152Z" fill="#FFC2C2"/>
<path d="M52.1873 126.413C52.1873 127.031 51.7731 127.443 51.1518 127.443C50.5305 127.443 50.1163 127.031 50.1163 126.413C50.1163 125.796 50.5305 125.384 51.1518 125.384C51.7731 125.384 52.1873 125.796 52.1873 126.413Z" fill="#FFC2C2"/>
<path d="M69.9972 106.644C69.9972 107.056 69.583 107.468 69.1688 107.468C68.7546 107.468 68.3405 107.056 68.3405 106.644C68.3405 106.232 68.7546 105.82 69.1688 105.82C69.583 105.82 69.9972 106.232 69.9972 106.644Z" fill="#FFC2C2"/>
<path d="M74.3461 98.8183C74.3461 99.642 73.7248 100.26 72.8964 100.26C72.0681 100.26 71.4468 99.642 71.4468 98.8183C71.4468 97.9945 72.0681 97.3767 72.8964 97.3767C73.7248 97.1708 74.3461 97.9945 74.3461 98.8183Z" fill="#FFC2C2"/>
<path d="M79.5233 109.939C79.5233 110.35 79.3162 110.556 78.902 110.556C78.4879 110.556 78.2808 110.35 78.2808 109.939C78.2808 109.527 78.4879 109.321 78.902 109.321C79.3162 109.321 79.5233 109.527 79.5233 109.939Z" fill="#FFC2C2"/>
<path d="M60.4709 104.173C60.4709 103.761 60.8851 103.349 61.2993 103.349C61.7135 103.349 62.1277 103.761 62.1277 104.173C62.1277 104.585 61.7135 104.997 61.2993 104.997C60.678 104.997 60.4709 104.585 60.4709 104.173Z" fill="#FFC2C2"/>
<path d="M91.5348 133.209C91.5348 134.033 90.9135 134.857 89.8781 134.857C89.0497 134.857 88.2213 134.239 88.2213 133.209C88.2213 132.386 88.8426 131.562 89.8781 131.562C90.9135 131.768 91.5348 132.386 91.5348 133.209Z" fill="#FFC2C2"/>
<path d="M62.956 140.417C62.956 140.829 62.5419 141.241 62.1277 141.241C61.7135 141.241 61.2993 140.829 61.2993 140.417C61.2993 140.005 61.7135 139.593 62.1277 139.593C62.749 139.799 62.956 140.005 62.956 140.417Z" fill="#FFC2C2"/>
<path d="M86.5644 127.649C86.5644 128.267 86.1503 128.679 85.529 128.679C84.9077 128.679 84.4935 128.267 84.4935 127.649C84.4935 127.031 84.9077 126.62 85.529 126.62C86.1503 126.62 86.5644 127.031 86.5644 127.649Z" fill="#FFC2C2"/>
<path d="M83.458 120.441C83.458 120.853 83.0438 121.265 82.6296 121.265C82.2155 121.265 81.8013 120.853 81.8013 120.441C81.8013 120.03 82.2155 119.618 82.6296 119.618C83.0438 119.618 83.458 120.03 83.458 120.441Z" fill="#FFC2C2"/>
<path d="M56.7434 95.9355C56.7434 96.3474 56.3292 96.7593 55.915 96.7593C55.5009 96.7593 55.0867 96.3474 55.0867 95.9355C55.0867 95.5237 55.5009 95.1118 55.915 95.1118C56.3292 95.1118 56.7434 95.5237 56.7434 95.9355Z" fill="#FFC2C2"/>
<path d="M64.1986 91.4049C64.1986 92.2287 63.5773 92.8465 62.749 92.8465C61.9206 92.8465 61.2993 92.2287 61.2993 91.4049C61.2993 90.5812 61.9206 89.9634 62.749 89.9634C63.5773 89.9634 64.1986 90.5812 64.1986 91.4049Z" fill="#FFC2C2"/>
<path d="M57.9858 89.5515C57.9858 89.7575 57.7787 90.1693 57.5717 90.1693C57.3646 90.1693 57.1575 89.9634 57.1575 89.5515C57.1575 89.3456 57.3646 89.1396 57.5717 89.1396C57.7787 89.1396 57.9858 89.3456 57.9858 89.5515Z" fill="#FFC2C2"/>
<path d="M59.8497 84.4032C59.8497 85.021 59.4355 85.4329 58.8143 85.4329C58.193 85.4329 57.7788 85.021 57.7788 84.4032C57.7788 83.7854 58.193 83.3735 58.8143 83.3735C59.4355 83.5795 59.8497 83.9913 59.8497 84.4032Z" fill="#FFC2C2"/>
<path d="M69.9972 85.6388C69.9972 86.0507 69.7901 86.2566 69.3759 86.2566C68.9617 86.2566 68.7546 86.0507 68.7546 85.6388C68.7546 85.2269 68.9617 85.021 69.3759 85.021C69.7901 85.021 69.9972 85.4329 69.9972 85.6388Z" fill="#FFC2C2"/>
<path d="M71.2396 80.0784C71.2396 80.2843 71.0325 80.4902 70.8254 80.4902C70.6183 80.4902 70.4113 80.2843 70.4113 80.0784C70.4113 79.8724 70.6183 79.6665 70.8254 79.6665C71.0325 79.6665 71.2396 79.8724 71.2396 80.0784Z" fill="#FFC2C2"/>
<g opacity="0.6">
<path opacity="0.6" d="M73.7248 77.6069C73.1036 77.8129 72.6894 77.8129 72.0681 78.0188C69.7901 80.6959 71.0327 85.0206 68.1334 88.7274C65.027 92.6401 51.7731 102.113 54.6724 92.0223C56.9504 84.1968 59.0213 80.0781 59.8497 78.6366C59.6426 78.6366 59.4355 78.6366 59.4355 78.4307C58.6072 79.6663 56.9504 82.7553 55.2937 87.2858C53.2228 93.8757 51.9802 101.495 51.9802 101.495C51.9802 101.495 65.4412 95.5232 71.4468 86.0502C72.0681 85.2265 70.8256 83.579 71.4468 81.1078C71.861 78.4307 73.7248 77.6069 73.7248 77.6069Z" fill="#FF7D7D"/>
</g>
<g opacity="0.7">
<path opacity="0.7" d="M76.8312 87.4917C76.8312 87.4917 67.0978 101.907 50.7376 108.703C47.8383 123.942 50.9447 140.211 50.9447 140.211C50.9447 140.211 58.8142 143.094 71.6539 141.652C88.8425 139.593 94.641 134.445 94.641 134.445C79.3163 119.206 76.8312 87.4917 76.8312 87.4917ZM75.7957 138.769C68.5475 142.888 52.1872 142.682 51.1518 137.328C47.6312 121.471 51.1518 109.939 56.7433 107.055C62.1276 104.172 68.7546 106.232 73.1035 120.235C77.4524 134.445 81.1801 135.68 75.7957 138.769Z" fill="#FF7D7D"/>
</g>
<path d="M74.346 141.241C73.5176 141.447 72.4821 141.447 71.6538 141.653C69.3758 141.859 67.3049 142.064 65.2339 142.064C65.2339 142.064 62.5417 148.242 62.1276 158.127V158.745C69.3758 159.363 75.1743 157.715 75.1743 157.715V157.098C74.1389 149.066 74.346 141.241 74.346 141.241Z" fill="#FFF48D"/>
<path d="M65.234 142.065C61.7135 142.065 58.8142 141.859 56.5362 141.447C56.5362 141.447 53.844 145.565 49.9092 154.421L49.7021 154.832C55.9149 158.539 62.1277 157.922 62.1277 157.922C62.3347 148.243 65.234 142.065 65.234 142.065Z" fill="#FFE773"/>
<path d="M56.329 141.447C52.8084 140.829 50.7375 140.211 50.7375 140.211C47.8382 142.682 42.0397 149.478 42.0397 149.478C44.939 152.773 49.7021 154.626 49.7021 154.626C53.6368 145.565 56.329 141.447 56.329 141.447Z" fill="#FFF48D"/>
<path d="M89.8779 137.122C88.0141 137.946 85.3219 138.975 82.0084 139.799C82.2155 140.829 83.6652 147.831 86.1503 154.215C92.5701 153.185 97.7474 149.89 97.5403 149.684C97.3332 149.478 96.919 148.654 96.919 148.654C94.4339 145.153 89.8779 137.122 89.8779 137.122Z" fill="#FFF48D"/>
<path d="M106.031 141.035C102.096 136.916 94.6409 134.651 94.4338 134.445C94.4338 134.445 93.1913 135.68 89.8778 137.122C89.8778 137.122 94.4338 145.153 97.126 148.654C104.788 145.565 106.031 141.035 106.031 141.035Z" fill="#FFE773"/>
<path d="M74.3461 141.241C74.3461 141.241 74.139 149.066 75.3815 156.892C81.5943 156.686 86.5645 154.832 86.5645 154.832L86.3574 154.009C83.6652 147.625 82.4226 140.623 82.2156 139.593C79.9375 140.211 77.2454 140.829 74.3461 141.241Z" fill="#FFE773"/>
<g opacity="0.6">
<path opacity="0.6" d="M50.7375 140.211C48.8737 141.858 45.5602 145.359 43.6964 147.419C45.5602 145.359 48.8737 142.27 50.9446 142.888C54.2581 143.506 49.495 154.626 49.495 154.626C53.4297 145.565 56.1219 141.652 56.1219 141.652C52.8084 141.035 50.7375 140.211 50.7375 140.211Z" fill="#FFE773"/>
</g>
<g opacity="0.6">
<path opacity="0.6" d="M65.234 142.065C61.7134 142.065 58.8141 141.859 56.5361 141.447C56.5361 141.447 53.8439 145.36 49.9092 154.421C50.5305 153.185 54.4652 144.536 58.3999 144.948C62.7489 145.36 62.1276 158.127 62.1276 158.127C62.3347 148.243 65.234 142.065 65.234 142.065Z" fill="#FFE773"/>
</g>
<g opacity="0.6">
<path opacity="0.6" d="M67.512 144.536C72.6893 143.506 75.3815 156.686 75.3815 156.686C74.346 148.86 74.5531 141.241 74.5531 141.241C73.7248 141.447 72.6893 141.447 71.8609 141.653C69.5829 141.859 67.512 142.064 65.4411 142.064C65.4411 142.064 62.956 147.625 62.3347 156.686C62.3347 153.391 63.3702 145.359 67.512 144.536Z" fill="#FFE773"/>
</g>
<g opacity="0.6">
<path opacity="0.6" d="M77.8666 143.094C82.0085 142.476 85.7361 153.391 86.3574 154.009C83.6652 147.625 82.4226 140.623 82.2156 139.593C79.9375 140.211 77.4524 140.623 74.3461 141.241C74.3461 141.241 74.139 149.066 75.3815 156.892C75.1744 157.098 73.7248 143.918 77.8666 143.094Z" fill="#FFE773"/>
</g>
<g opacity="0.6">
<path opacity="0.6" d="M86.7715 140.829C89.8779 139.593 94.2268 144.742 96.919 148.036C94.2268 144.536 89.8779 136.916 89.8779 136.916C88.0141 137.74 85.3219 138.769 82.0084 139.593C82.2155 140.623 83.6652 147.625 86.1503 154.009C86.3573 154.214 83.6652 142.27 86.7715 140.829Z" fill="#FFE773"/>
</g>
<g opacity="0.6">
<path opacity="0.6" d="M94.4338 134.445C94.4338 134.445 93.1913 135.68 89.8778 137.122C89.8778 137.122 94.4338 145.153 97.126 148.654C97.126 148.654 92.9842 141.035 94.4338 138.152C95.8835 135.474 102.096 137.946 106.031 141.035C102.096 136.916 94.6409 134.445 94.4338 134.445Z" fill="#FFE773"/>
</g>
<path d="M73.7247 77.6071C82.4225 75.9596 88.2211 70.1935 88.2211 70.1935C91.9487 66.6926 93.3984 62.368 93.3984 62.368C98.1615 65.8689 102.096 59.8968 101.682 56.3959C101.268 52.895 97.126 51.8653 95.2622 54.7484C93.3984 57.6315 91.9487 58.4552 91.9487 58.4552C91.9487 58.4552 90.9133 50.6297 83.2509 37.0381C76.2098 24.4761 76.2098 18.71 76.2098 18.71C55.5006 29.2126 47.6311 42.1864 47.6311 42.1864C48.0453 36.8322 50.9446 31.2719 50.9446 31.2719C44.1105 34.5669 41.2113 42.1864 41.2113 42.1864C39.3474 53.7187 36.4481 60.9264 42.4538 68.7519C48.4595 76.5774 59.0211 78.4308 59.0211 78.4308C59.0211 78.4308 64.6126 80.0783 73.7247 77.6071Z" fill="#FFD8B8"/>
<path d="M43.9034 47.7465C43.9034 47.7465 44.5247 43.0101 47.8382 43.216C51.1517 43.4219 51.1517 48.3643 51.1517 48.3643C51.1517 48.3643 49.9091 44.6575 47.8382 44.2457C45.3531 44.2457 43.9034 47.7465 43.9034 47.7465Z" fill="#663E19"/>
<path d="M62.9559 47.1289C62.9559 47.1289 63.163 41.5687 67.9261 41.1568C72.6892 40.7449 73.7247 46.5111 73.7247 46.5111C73.7247 46.5111 71.6538 42.1865 68.1332 42.3924C64.6127 42.5983 62.9559 47.1289 62.9559 47.1289Z" fill="#663E19"/>
<path d="M55.2935 61.3385C55.2935 61.3385 55.0864 61.3385 55.0864 61.1326C54.8793 60.9266 54.6722 60.9266 54.2581 60.7207C53.8439 60.7207 53.4297 60.7207 53.2226 60.9266L53.0155 61.1326L52.8084 61.3385C52.8084 61.5444 52.8084 61.5444 52.6013 61.5444V61.7504C52.6013 62.1622 52.6013 62.5741 52.8084 62.986C53.0155 63.1919 53.0155 63.3978 53.2226 63.3978C53.4297 63.6038 53.6368 63.6038 53.6368 63.6038C53.8439 63.6038 54.051 63.8097 54.051 63.8097C54.2581 63.8097 54.258 63.8097 54.4651 63.8097C54.6722 63.8097 54.8793 63.8097 54.8793 63.8097C54.8793 63.8097 54.6722 63.8097 54.4651 63.8097C54.258 63.8097 54.2581 63.8097 54.051 63.8097C53.8439 63.8097 53.6368 63.8097 53.4297 63.8097C53.2226 63.8097 53.0155 63.6038 52.8084 63.6038C52.6013 63.3978 52.3942 63.3979 52.1871 63.1919C51.98 62.986 51.7729 62.78 51.7729 62.3682C51.7729 62.1622 51.5659 61.7504 51.7729 61.5444C51.7729 61.3385 51.7729 61.3385 51.98 61.1326C51.98 60.9266 52.1871 60.7207 52.1871 60.7207L52.3942 60.5148C52.3942 60.5148 52.3942 60.3088 52.6013 60.3088C52.8084 60.3088 52.8084 60.1029 53.0155 60.1029C53.2226 59.897 53.6368 59.897 53.8439 59.897C54.051 59.897 54.258 59.897 54.4651 60.1029C54.8793 60.3088 55.0864 60.5148 55.2935 60.7207C55.2935 61.1326 55.2935 61.3385 55.2935 61.3385Z" fill="#B78155"/>
<path d="M48.2523 68.1343C48.2523 68.1343 48.4594 68.3402 48.8736 68.958C49.2878 69.3699 49.9091 70.1936 50.7374 70.8114C51.5658 71.4292 52.6012 72.047 53.8438 72.6648C55.0863 73.0767 56.3289 73.4886 57.7785 73.4886C58.1927 73.4886 58.3998 73.4886 58.814 73.4886C59.2282 73.4886 59.4353 73.4886 59.8495 73.4886C60.4707 73.4886 61.2991 73.4886 61.9204 73.2826C62.3346 73.2826 62.5416 73.0767 62.9558 73.0767C63.1629 73.0767 63.5771 72.8708 63.7842 72.8708C63.9913 72.6648 64.4055 72.6648 64.6126 72.6648C64.8197 72.4589 65.0268 72.4589 65.4409 72.253C65.8551 72.047 66.2693 71.8411 66.6835 71.4292C67.0977 71.2233 67.3048 71.0174 67.5118 70.8114C67.926 70.3996 68.1331 69.9877 68.1331 69.9877C68.1331 69.9877 68.1331 69.9877 67.926 70.1936C67.926 70.3996 67.7189 70.6055 67.5118 70.8114C67.3048 71.0174 67.0977 71.4292 66.6835 71.6352C66.2693 71.8411 65.8551 72.253 65.4409 72.4589C65.2338 72.6648 65.0268 72.6648 64.6126 72.8708C64.4055 73.0767 63.9913 73.0767 63.7842 73.2826C63.5771 73.2826 63.1629 73.4886 62.9558 73.6945C62.5416 73.6945 62.3346 73.9004 61.9204 73.9004C61.2991 74.1064 60.4707 74.1064 59.8495 74.1064C59.4353 74.1064 59.2282 74.1064 58.814 74.1064C58.3998 74.1064 58.1927 74.1064 57.7785 74.1064C56.3289 74.1064 54.8793 73.6945 53.6367 73.0767C52.3942 72.4589 51.3587 71.6352 50.5303 71.0174C49.702 70.1936 49.2878 69.5758 48.8736 68.958C48.2523 68.5461 48.2523 68.1343 48.2523 68.1343Z" fill="#B78155"/>
<path d="M66.8906 68.752C67.0977 68.9579 67.0977 69.1638 67.0977 69.1638L67.3048 69.3698L67.5119 69.5757L67.719 69.7816L67.9261 69.9876L68.1332 70.1935C68.1332 70.1935 68.3403 70.1935 68.3403 70.3994C68.3403 70.3994 68.5474 70.3994 68.5474 70.6054H68.7545C68.9615 70.8113 69.3757 70.8113 69.3757 70.8113C69.3757 70.8113 69.1686 70.8113 68.7545 71.0172H68.5474C68.5474 71.0172 68.3403 71.0172 68.1332 71.0172C67.9261 71.0172 67.9261 71.0172 67.719 71.0172C67.5119 71.0172 67.5119 71.0172 67.3048 70.8113C67.0977 70.8113 67.0977 70.6054 66.8906 70.6054L66.6835 70.3994L66.4764 70.1935V69.9876C66.6835 69.1638 66.6835 68.9579 66.8906 68.752C66.6835 68.752 66.8906 68.752 66.8906 68.752Z" fill="#B78155"/>
<path d="M49.0807 53.7188C49.0807 54.9544 48.4594 56.19 47.8381 56.19C47.0098 56.19 46.5956 55.1603 46.5956 53.7188C46.5956 52.4832 47.2169 51.2476 47.8381 51.2476C48.4594 51.2476 49.0807 52.2772 49.0807 53.7188Z" fill="black"/>
<path d="M48.8735 54.3367C48.8735 54.9545 48.6664 55.5723 48.2523 55.5723C47.8381 55.5723 47.631 55.1604 47.631 54.3367C47.631 53.7189 47.8381 53.1011 48.2523 53.1011C48.4593 53.1011 48.8735 53.7189 48.8735 54.3367Z" fill="white"/>
<path d="M69.1686 54.1308C69.1686 55.5723 68.5473 56.8079 67.7189 56.8079C66.8906 56.8079 66.2693 55.5723 66.2693 54.1308C66.2693 52.6892 66.8906 51.4536 67.7189 51.4536C68.5473 51.4536 69.1686 52.6892 69.1686 54.1308Z" fill="black"/>
<path d="M68.9615 54.9544C68.9615 55.5722 68.5474 56.19 68.3403 56.19C67.9261 56.19 67.719 55.5722 67.719 54.9544C67.719 54.3366 68.1332 53.7188 68.3403 53.7188C68.5474 53.7188 68.9615 54.1306 68.9615 54.9544Z" fill="white"/>
<path d="M94.4338 58.6611C94.4338 58.6611 94.4338 59.073 94.4338 59.6908C94.4338 59.8967 94.4338 60.1027 94.4338 60.1027C94.4338 60.3086 94.4338 60.5145 94.4338 60.7205C94.4338 61.1323 94.2267 61.5442 94.2267 61.9561C94.2267 62.162 94.0196 62.3679 94.0196 62.5739C94.0196 62.7798 93.8125 62.9857 93.8125 63.1917C93.6054 63.6036 93.3983 63.8095 93.1912 64.2214C92.777 64.6332 92.5699 65.0451 92.5699 65.0451C92.5699 65.0451 92.777 64.6332 92.9841 64.0154C93.1912 63.8095 93.1912 63.3976 93.3983 62.9857C93.6054 62.5739 93.6054 62.162 93.8125 61.9561C94.0196 61.5442 94.0196 61.1323 94.2267 60.9264C94.4338 60.5145 94.4338 60.3086 94.4338 59.8967C94.4338 59.073 94.4338 58.6611 94.4338 58.6611Z" fill="#B78155"/>
<path d="M95.8835 60.9263C95.8835 60.9263 95.8835 60.5144 95.8835 60.1026C95.8835 59.8966 95.8835 59.4848 96.0906 59.2788C96.0906 59.0729 96.2977 58.661 96.5048 58.4551C96.7119 58.2491 96.7119 58.2492 96.919 58.0432C97.1261 57.8373 97.1261 57.8373 97.3332 57.8373C97.5403 57.8373 97.5403 57.6313 97.7474 57.6313C97.9545 57.6313 97.9545 57.6313 98.1616 57.6313C98.3687 57.6313 98.5757 57.6313 98.7828 57.6313C98.9899 57.6313 98.9899 57.6313 98.9899 57.6313C98.9899 57.6313 98.9899 57.6313 98.7828 57.6313H98.5757C98.5757 57.6313 98.3686 57.6313 98.3686 57.8373C98.1616 57.8373 98.1616 57.8373 97.9545 58.0432C97.7474 58.0432 97.7474 58.2491 97.5403 58.2491C97.3332 58.2491 97.3332 58.4551 97.1261 58.4551C96.919 58.4551 96.919 58.661 96.919 58.867C96.5048 59.2788 96.2977 59.8966 96.0906 60.3085C96.0906 60.5144 95.8835 60.9263 95.8835 60.9263Z" fill="#B78155"/>
<path d="M96.0906 60.1026C96.0906 60.1026 96.0906 59.8966 96.2977 59.4847C96.2977 59.2788 96.5048 59.0729 96.7118 58.8669C96.9189 58.661 97.126 58.4551 97.5402 58.4551C97.7473 58.4551 97.7473 58.4551 97.9544 58.4551C98.1615 58.4551 98.1615 58.4551 98.3686 58.4551C98.5757 58.4551 98.7828 58.661 98.9899 58.8669C99.1969 59.0729 99.1969 59.0729 99.404 59.2788V59.4847C99.404 59.4847 99.404 59.4847 99.197 59.4847C98.9899 59.4847 98.9899 59.4847 98.7828 59.2788C98.5757 59.2788 98.3686 59.2788 98.1615 59.0729C97.9544 59.0729 97.7473 59.0729 97.5402 59.0729H97.3331C97.3331 59.0729 97.126 59.0729 97.126 59.2788C96.9189 59.4847 96.7118 59.4847 96.7118 59.6907C96.2977 59.8966 96.0906 60.1026 96.0906 60.1026Z" fill="#B78155"/>
<g opacity="0.6">
<path opacity="0.6" d="M101.889 56.6018C101.889 55.7781 101.475 54.9543 100.854 54.3365C101.061 55.1602 101.268 56.1899 101.061 57.4255C100.232 62.5739 94.0196 64.0154 94.4338 60.5145C94.848 57.0137 94.4338 56.6018 93.3984 59.2789C89.8778 69.5756 77.2452 77.6071 63.5772 77.6071C54.4651 77.6071 38.312 71.8409 39.9687 53.5128C40.3829 48.1585 41.2113 41.9805 41.2113 41.9805C39.3474 53.5128 36.4481 60.7205 42.4538 68.546C48.4595 76.3715 59.0211 78.2249 59.0211 78.2249C59.0211 78.2249 64.6126 79.8723 73.7247 77.6071C82.4225 75.9596 88.2211 70.1934 88.2211 70.1934C91.9487 66.6926 93.3984 62.3679 93.3984 62.3679C98.3686 66.0748 102.303 60.1027 101.889 56.6018Z" fill="#F2C5A0"/>
</g>
<path d="M106.238 51.2475C109.345 40.5389 105.617 26.5354 105.617 26.5354C96.919 -2.08942 59.4354 -8.06151 43.4893 11.0904C27.3362 30.4482 39.3475 46.9229 39.3475 46.9229C39.7617 43.8339 41.4184 42.1864 41.4184 42.1864C41.4184 42.1864 44.3177 34.5668 51.1517 31.2719C51.1517 31.2719 48.4595 36.8321 47.8383 42.1864C47.8383 42.1864 55.7078 29.2126 76.624 18.9159C76.624 18.9159 76.624 24.682 83.6651 37.244C91.3275 50.8356 92.363 58.6611 92.363 58.6611C92.363 58.6611 93.8126 57.8374 95.6765 54.9543C97.5403 52.0712 101.889 53.1009 102.096 56.6018C102.51 60.1027 98.5757 66.0747 93.8126 62.5739C93.8126 62.5739 92.363 66.6925 88.6353 70.3994C98.5757 69.9875 103.132 61.9561 106.238 51.2475Z" fill="#663E19"/>
<path d="M96.7119 92.0224C99.197 94.6996 102.096 92.4343 102.096 92.4343C96.7119 92.0224 97.9545 85.4325 103.132 79.6664C108.309 73.9002 118.664 65.4569 118.871 46.7169C119.285 27.9769 105.617 26.1235 105.617 26.1235C105.617 26.1235 109.345 40.1271 106.238 50.8356C103.132 61.7501 98.5757 69.5756 88.2212 69.9875C74.7602 100.26 97.3332 105.82 97.3332 105.82C92.9843 104.584 91.9488 99.436 91.9488 99.436C91.9488 99.436 94.2268 105.614 102.51 103.555C110.794 101.701 109.552 95.3174 109.552 95.3174C99.8183 100.672 96.7119 92.0224 96.7119 92.0224Z" fill="#5E3819"/>
<path d="M105.617 26.5352C105.617 26.5352 108.102 23.2403 111.416 22.2106C113.694 21.3868 112.451 23.0343 112.037 25.9174C111.623 29.0064 111.623 30.4479 109.759 29.0064C107.688 27.5649 105.617 26.5352 105.617 26.5352Z" fill="#FF7D7D"/>
<path d="M106.238 26.947C106.238 26.947 109.345 31.2716 111.623 38.4793C112.037 39.509 108.723 40.1268 108.516 39.509C108.309 38.8912 107.481 30.6538 105.41 26.5352L106.238 26.947Z" fill="#FF7D7D"/>
<g opacity="0.5">
<path opacity="0.5" d="M101.889 18.092C105.824 25.5056 108.516 46.3049 101.061 48.3643C93.6055 50.4236 91.9488 41.9803 85.3219 32.3014C78.4879 22.6225 79.1091 15.2089 79.1091 15.2089C64.4056 20.1513 51.9801 34.5667 53.0156 30.448C54.2581 26.3293 58.607 22.6225 53.8439 24.8878C44.5248 29.4183 38.312 41.3625 37.2766 34.9786C34.7915 21.5928 43.4893 10.8843 43.4893 10.8843C27.3362 30.2421 39.3475 46.7168 39.3475 46.7168C39.7617 43.6278 41.4184 41.9803 41.4184 41.9803C41.4184 41.9803 44.3177 34.3608 51.1517 31.0658C51.1517 31.0658 48.4595 36.626 47.8383 41.9803C47.8383 41.9803 55.7078 29.0065 76.624 18.7098C76.624 18.7098 76.624 24.4759 83.6651 37.0379C91.3275 50.6295 92.363 58.455 92.363 58.455C92.363 58.455 93.8126 57.6313 95.6765 54.7482C97.5403 51.8652 101.889 52.8948 102.096 56.3957C102.51 59.8966 98.5757 65.8687 93.8126 62.3678C93.8126 62.3678 92.363 66.4865 88.6353 70.1933C98.7828 69.7814 103.546 61.9559 106.652 51.0414C109.759 40.3328 106.031 26.3293 106.031 26.3293C104.788 23.4463 103.546 20.7691 101.889 18.092Z" fill="#663E19"/>
</g>
<g opacity="0.6">
<path opacity="0.6" d="M118.871 46.9227C119.078 38.6854 116.386 33.7429 113.486 30.8599C113.486 30.8599 118.249 36.2141 118.249 45.893C118.457 64.2212 105.41 75.1357 100.232 81.5196C94.8481 87.9036 99.4041 92.2282 99.4041 92.2282C94.4339 90.9926 95.6765 85.0205 95.6765 85.0205C91.3275 99.6418 106.238 98.8181 106.238 98.8181C103.546 100.466 95.2623 101.701 91.1204 94.2875C86.9786 86.8739 92.363 76.5772 102.096 66.0746C114.108 53.1007 107.274 35.5963 107.274 35.5963C107.688 40.3328 107.688 46.099 106.238 51.0414C103.132 61.9559 98.5757 69.7814 88.2212 70.1933C74.7602 100.26 97.3332 105.82 97.3332 105.82C92.9843 104.584 91.9488 99.4359 91.9488 99.4359C91.9488 99.4359 94.2268 105.614 102.51 103.555C110.794 101.701 109.552 95.3172 109.552 95.3172C100.025 100.671 96.919 92.2282 96.919 92.2282C99.4041 94.9053 102.303 92.6401 102.303 92.6401C96.919 92.2282 98.1616 85.6383 103.339 79.8722C108.309 74.106 118.664 65.6627 118.871 46.9227Z" fill="#5E3819"/>
</g>
<path d="M61.0921 201.991C59.2283 192.724 57.5715 177.897 59.4354 158.333C57.7786 158.127 55.7077 157.921 53.4297 157.098C53.4297 157.098 50.1162 180.368 54.6722 203.021C56.329 203.021 58.3999 202.815 61.0921 201.991Z" fill="#FFD3AB"/>
<g opacity="0.6">
<path opacity="0.6" d="M59.4354 158.127C57.7787 157.921 55.7078 157.715 53.4297 156.892C53.4297 156.892 53.4297 157.715 53.2227 158.951C55.0865 156.892 57.5716 158.745 57.1574 164.511C56.7432 173.572 56.9503 186.34 58.3999 196.225C59.2283 202.197 56.7432 203.433 54.6723 201.785C54.6723 202.197 54.8794 202.403 54.8794 202.815C56.329 202.815 58.3999 202.609 61.2992 201.785C59.4354 192.724 57.7787 177.897 59.4354 158.127Z" fill="#F2C5A0"/>
</g>
<path d="M61.0921 201.991C58.3999 202.815 56.329 203.021 54.6722 203.021C55.5006 207.14 56.5361 211.258 57.9857 215.171C57.9857 215.171 59.2283 215.171 60.2637 217.642C60.2637 217.642 62.9559 216.818 63.9914 215.789C65.2339 214.759 64.4056 214.347 63.9914 212.906C63.9914 212.906 62.5417 208.993 61.0921 201.991Z" fill="white"/>
<path d="M63.9914 212.906C63.9914 212.906 62.5417 209.199 61.0921 201.991C58.3999 202.815 56.329 203.021 54.6722 203.021C54.8793 204.256 55.0864 205.286 55.5006 206.522C55.5006 203.021 58.3999 201.991 60.0566 207.757C61.9205 214.553 62.9559 215.583 61.5063 216.201C60.0566 216.818 60.2637 215.171 57.9857 214.759C57.9857 214.965 57.9857 214.965 58.1928 215.171C58.1928 215.171 59.4354 215.171 60.4708 217.642C60.4708 217.642 63.163 216.818 64.1985 215.789C65.2339 214.759 64.6126 214.141 63.9914 212.906Z" fill="#EFEFEF"/>
<path d="M49.495 231.646C45.3531 232.058 41.2113 231.852 39.1404 230.616C39.3475 232.675 40.59 233.911 47.424 233.499C55.0864 233.087 60.0566 228.763 64.8198 225.056C69.3758 221.555 70.4112 220.731 70.2041 218.672C65.441 224.438 55.9148 231.234 49.495 231.646Z" fill="#D6D6D6"/>
<path d="M70.2042 218.878C70.2042 218.672 70.2042 218.672 70.2042 218.466C69.79 215.995 68.1333 210.846 64.1986 212.7C64.6127 214.141 65.4411 214.553 64.1986 215.583C62.956 216.613 60.4709 217.436 60.4709 217.436C59.6425 214.965 58.1929 214.965 58.1929 214.965C58.1929 214.965 55.2936 214.759 55.5007 219.29C55.5007 220.113 51.9801 222.791 46.8029 224.85C49.288 225.262 51.9801 226.909 53.4298 230.616C59.4354 228.557 66.2695 223.408 70.2042 218.878Z" fill="#FF7D7D"/>
<path d="M46.8028 225.056C46.5957 225.056 46.1816 225.262 45.9745 225.262C45.9745 225.262 38.9333 227.527 38.9333 229.792C38.9333 229.998 38.9333 230.204 38.9333 230.41C41.0043 231.646 45.1461 231.851 49.2879 231.44C50.5305 231.234 51.9801 231.028 53.2227 230.41C51.773 227.115 49.2879 225.673 46.8028 225.056Z" fill="white"/>
<g opacity="0.5">
<path opacity="0.5" d="M69.997 218.672C69.5828 216.613 68.5474 212.906 65.8552 212.494C71.0325 218.878 63.7843 222.379 55.0864 226.292C53.8439 226.91 52.6013 227.321 51.3588 227.733C52.1871 228.557 52.8084 229.587 53.2226 230.822C59.2283 228.763 66.0623 223.409 69.7899 218.878C69.997 218.878 69.997 218.672 69.997 218.672Z" fill="#FF7D7D"/>
</g>
<path d="M39.5546 228.763C39.1404 229.174 38.9333 229.586 38.9333 230.204C38.9333 230.41 38.9333 230.616 38.9333 230.822C41.0043 232.058 45.1461 232.263 49.2879 231.852C50.5305 231.646 51.9801 231.44 53.2227 230.822C52.6014 229.586 51.9801 228.557 51.3589 227.733C46.1816 229.38 40.7972 229.586 39.5546 228.763Z" fill="#EFEFEF"/>
<path d="M96.9189 159.774C92.57 161.834 88.6353 163.069 86.9785 161.216C84.9076 158.951 84.0793 155.656 84.0793 155.656C82.2154 156.274 79.1091 156.891 76.0027 156.891C80.1445 166.776 84.4934 170.483 92.3629 168.012C94.848 167.188 97.7473 165.952 100.647 164.511C99.197 161.834 97.9544 160.598 96.9189 159.774Z" fill="#FFD3AB"/>
<g opacity="0.6">
<path opacity="0.6" d="M83.8722 160.392C87.3927 165.747 91.1204 163.687 93.8126 162.452C95.6764 161.422 98.7828 162.863 98.3686 165.541C98.9899 165.129 99.8182 164.923 100.44 164.511C99.197 161.834 97.9544 160.392 96.9189 159.774C92.57 161.834 88.6353 163.069 86.9785 161.216C84.9076 158.951 84.0793 155.656 84.0793 155.656C82.2154 156.274 79.1091 156.891 76.0027 156.891C76.4169 158.127 77.0381 159.157 77.4523 160.186C78.2807 157.715 81.3871 156.891 83.8722 160.392Z" fill="#F2C5A0"/>
</g>
<path d="M111.208 152.567C109.759 152.155 108.93 152.979 108.93 152.979C108.93 152.979 105.202 155.656 100.646 157.921C99.4039 158.539 98.1614 159.157 96.9188 159.775C97.9543 160.598 99.1968 161.834 100.439 164.511C106.238 161.628 111.415 158.127 111.415 158.127C111.622 156.686 113.279 156.48 113.279 155.862C113.486 155.656 112.658 152.773 111.208 152.567Z" fill="white"/>
<path d="M111.208 152.567C109.759 152.155 108.93 152.979 108.93 152.979C108.93 152.979 105.202 155.656 100.646 157.921C99.4039 158.539 98.1614 159.157 96.9188 159.775C97.9543 160.598 99.1968 161.834 100.439 164.511C101.061 164.099 101.889 163.893 102.51 163.481C100.232 163.276 99.4039 160.598 102.51 158.127C106.652 154.832 110.587 153.185 111.208 154.42C111.829 155.656 109.966 156.068 110.38 158.745C111.001 158.333 111.415 158.127 111.415 158.127C111.622 156.686 113.279 156.48 113.279 155.862C113.486 155.656 112.658 152.773 111.208 152.567Z" fill="#EFEFEF"/>
<path d="M126.947 168.836C126.326 160.598 119.078 146.801 118.042 146.801C117.421 146.801 116.593 146.801 115.764 147.007C117.628 148.654 119.906 151.949 122.184 158.951C124.876 167.394 126.533 173.984 125.912 178.309C126.74 176.249 127.154 172.748 126.947 168.836Z" fill="#D6D6D6"/>
<path d="M122.184 158.951C119.906 151.949 117.628 148.654 115.764 147.007C112.865 147.625 109.759 149.272 108.723 150.508C107.688 151.949 108.723 153.185 108.723 153.185C108.723 153.185 109.759 152.361 111.001 152.773C112.451 153.185 113.279 155.862 113.072 156.274C112.865 156.686 111.415 157.098 111.208 158.539C111.001 162.04 113.9 161.216 113.9 161.216C115.143 163.276 116.178 166.365 117.214 169.454C118.456 168.424 120.527 167.6 124.462 166.982C123.841 164.511 123.22 161.834 122.184 158.951Z" fill="#FF7D7D"/>
<path d="M117.421 169.248C118.664 172.748 119.906 176.249 121.77 178.515C123.634 180.78 125.083 180.162 125.912 178.103C126.326 175.426 125.705 171.513 124.462 166.776C120.734 167.394 118.664 168.424 117.421 169.248Z" fill="white"/>
<g opacity="0.5">
<path opacity="0.5" d="M118.249 154.215C119.492 157.509 121.149 162.658 122.391 167.394C123.012 167.188 123.634 167.188 124.462 166.982C123.841 164.511 123.012 161.834 122.184 158.951C119.906 151.949 117.628 148.654 115.764 147.007C112.865 147.625 109.759 149.272 108.723 150.508C108.516 150.714 108.516 150.92 108.309 151.126C110.794 148.86 115.764 147.419 118.249 154.215Z" fill="#FF7D7D"/>
</g>
<path d="M124.462 166.776C123.634 166.982 123.012 166.982 122.391 167.188C124.048 173.366 124.669 179.132 122.184 179.132C123.841 180.78 125.083 180.162 125.912 178.103C126.326 175.426 125.705 171.719 124.462 166.776Z" fill="#EFEFEF"/>
<path d="M59.021 78.4306C50.3231 84.4027 42.4536 87.4917 37.0692 85.4323C31.6849 83.373 28.3714 75.1356 28.3714 74.9297C28.1643 74.7238 28.9927 73.2822 28.5785 72.4585C28.1643 71.6347 27.1288 70.1932 26.3005 68.1339C25.4721 66.0745 24.4366 66.6923 24.0225 67.9279C23.6083 69.1635 24.4366 70.3991 24.4366 70.3991V72.6644C24.4366 72.6644 23.1941 73.4882 23.1941 75.9594C23.1941 78.6365 25.0579 79.4602 25.0579 79.4602C25.0579 79.4602 28.7856 88.7273 37.4834 91.4044C47.0096 94.4934 55.5004 87.0798 55.5004 87.0798C57.1571 82.5492 58.8139 79.6662 59.6422 78.2246C59.228 78.4306 59.021 78.4306 59.021 78.4306Z" fill="#FFD3AB"/>
<g opacity="0.6">
<path opacity="0.6" d="M59.021 78.4307C58.1926 78.8426 57.1572 79.6663 56.5359 80.0782C56.3288 82.5494 54.8792 88.3155 45.7671 90.5808C34.17 93.4639 27.336 80.49 26.3005 78.8426C25.4722 77.607 23.1942 77.401 23.1942 74.312C22.9871 74.7239 22.9871 75.3417 22.9871 75.9595C22.9871 78.6366 24.8509 79.4604 24.8509 79.4604C24.8509 79.4604 28.5785 88.7274 37.2764 91.4045C46.8026 94.4936 55.2934 87.0799 55.2934 87.0799C56.9501 82.5494 58.6068 79.6663 59.4352 78.2248C59.2281 78.4307 59.021 78.4307 59.021 78.4307Z" fill="#F2C5A0"/>
</g>
<path d="M73.7247 77.6069C73.7247 77.6069 71.8609 78.2247 71.2396 81.1078C70.6183 83.3731 71.8609 85.0206 71.2396 86.0502C65.2339 95.5232 51.773 101.495 51.773 101.495C43.6964 106.026 26.922 111.174 26.922 111.174C26.922 111.174 25.4723 109.321 24.2298 108.497C22.1588 106.85 20.9163 107.879 21.5376 108.703C22.1588 109.527 22.9872 110.556 22.9872 110.556C14.7035 107.467 11.183 109.939 13.8752 110.762C16.5674 111.586 19.4667 112.41 19.4667 112.41C9.31916 111.586 9.31916 115.499 11.5972 115.499C15.5319 115.499 19.2596 115.087 19.2596 115.087C15.5319 115.705 11.8043 117.97 12.4255 119C12.8397 120.029 20.295 117.764 20.295 117.764C20.295 117.764 13.0468 122.295 14.9106 122.706C16.7745 123.118 21.1234 120.235 21.5376 120.029C21.7447 119.823 22.573 121.265 26.0936 120.235C29.6141 119.206 29.8212 116.117 30.6496 115.911C38.5191 114.057 50.7375 108.703 50.7375 108.703C67.0978 101.907 76.8311 87.4918 76.8311 87.4918C80.1445 78.0188 74.346 77.6069 73.7247 77.6069Z" fill="#FFD3AB"/>
<g opacity="0.6">
<path opacity="0.6" d="M76.624 78.8428C77.6594 81.9318 76.0027 88.3157 68.1332 95.3175C56.1219 106.026 34.1702 113.028 29.4071 114.263C27.9574 114.675 28.7858 119 24.0227 119.412C22.1589 119.618 21.3305 119 20.9163 119.206C20.7092 119.412 15.5319 122.707 14.4965 122.089C14.4965 122.295 14.4965 122.501 14.7036 122.501C16.5674 122.913 20.9163 120.03 21.3305 119.824C21.5376 119.618 22.3659 121.059 25.8865 120.03C29.4071 119 29.6142 115.911 30.4425 115.705C38.312 113.852 50.5304 108.497 50.5304 108.497C66.8907 101.701 76.624 87.2861 76.624 87.2861C78.6949 82.3437 77.8665 79.8724 76.624 78.8428Z" fill="#F2C5A0"/>
</g>
</svg>
